<svg xmlns="http://www.w3.org/2000/svg" class="icon-freehand-selection" width="20px" height="20px" viewBox="0 0 20 20">
  <path fill-rule="evenodd" clip-rule="evenodd" d="M6.21302653,14.8968463 C5.78568333,18.2690981 3.66943045,20.0366427 -0.00936051055,19.9907253 L0.00936051055,18.4908421 C2.81838994,18.5259034 4.34783341,17.3821037 4.7106578,14.8728315 C3.71675358,14.5423631 3,13.6048849 3,12.5 C3,11.1192881 4.11928813,10 5.5,10 C6.88071187,10 8,11.1192881 8,12.5 C8,13.6329676 7.24634814,14.5899104 6.21302653,14.8968463 Z M8.69074591,13.940545 C8.8894095,13.5012047 9,13.0135173 9,12.5 C9,12.4871996 8.99993128,12.4744153 8.9997942,12.4616473 C9.32719342,12.4869429 9.66090897,12.5 10,12.5 C14.7852602,12.5 18.5,9.89968213 18.5,7 C18.5,4.10031787 14.7852602,1.5 10,1.5 C5.21473982,1.5 1.5,4.10031787 1.5,7 C1.5,8.10938223 2.04373842,9.17494554 2.98313748,10.0678352 C2.62935195,10.4338629 2.35468409,10.8768469 2.18668862,11.3692326 C0.818267366,10.1717229 0,8.65275227 0,7 C0,3.13400675 4.4771525,0 10,0 C15.5228475,0 20,3.13400675 20,7 C20,10.8659932 15.5228475,14 10,14 C9.55623742,14 9.11922602,13.9797663 8.69074591,13.940545 Z M5.5,13.5 C6.05228475,13.5 6.5,13.0522847 6.5,12.5 C6.5,11.9477153 6.05228475,11.5 5.5,11.5 C4.94771525,11.5 4.5,11.9477153 4.5,12.5 C4.5,13.0522847 4.94771525,13.5 5.5,13.5 Z"></path>
</svg>
