<svg class="svg-image-placeholder" xmlns="http://www.w3.org/2000/svg" height="300px" width="400px" viewBox="0 0 400 300">
  <path fill="#CCC" d="M0 150v150h400V0H0v150"></path>
  <path fill="#EAEAEA" d="M180.8 189.3h67.5c.7 0 1.2-.7 1-1.3l-9.3-29.2c-.2-.5-.8-.8-1.3-.6l-4.5 1.7c-.5.2-1 0-1.2-.4l-5.7-9.5c-.4-.6-1.3-.7-1.7-.1L206.7 177c-.3.5-.9.6-1.4.3L196 171c-.4-.3-1-.2-1.3.2L180 187.6c-.5.6-.1 1.7.8 1.7z"></path>
  <circle fill="#EAEAEA" cx="187.2" cy="151.8" r="8.7"></circle>
  <path fill="#EAEAEA" d="M266.9 125h-21.7l-11.8-31.3c-.4-1-1.5-1.6-2.6-1.2l-98.5 37c-1 .4-1.6 1.5-1.2 2.6l27.6 73.5c.2.6.8 1.1 1.4 1.2v-.1c.4.4.9.7 1.5.7h105.2c1.1 0 2-.9 2-2V127c.1-1.1-.8-2-1.9-2zm-39.3-18.4l6.9 18.4H173l52.1-19.6c1-.3 2.1.2 2.5 1.2zM144.1 138c-.4-1 .1-2.2 1.2-2.6l14.4-5.4v49.5L144.1 138zm114.8 57.6c0 1.1-.9 2-2 2h-85.2c-1.1 0-2-.9-2-2V137c0-1.1.9-2 2-2h85.2c1.1 0 2 .9 2 2v58.6z"></path>
</svg>
