<svg xmlns="http://www.w3.org/2000/svg" class="icon-polygon-selection" width="20px" height="20px" viewBox="0 0 20 20">
<path fill-rule="evenodd" clip-rule="evenodd" d="M3.6,17.2c0.7-0.3,1.6,0,1.9,0.8s0,1.6-0.8,1.9s-1.6,0-1.9-0.8S2.8,17.5,3.6,17.2z
	 M8.2,14.7l0.9,1.1L6.4,18l-0.9-1.1L8.2,14.7z M4.1,13.1l0.3,3.3L3,16.5l-0.3-3.3L4.1,13.1z M11.9,11.6l0.9,1.1l-2.6,2.1l-0.9-1.1
	L11.9,11.6z M15.5,8.7l0.9,1.1l-2.4,2l-0.9-1.1L15.5,8.7z M3.7,8.2L4,11.6l-1.4,0.1L2.2,8.4L3.7,8.2z M17,6.4
	c0.7-0.3,1.6,0.1,1.9,0.8c0.3,0.7-0.1,1.6-0.8,1.9c-0.7,0.3-1.6-0.1-1.9-0.8C15.9,7.5,16.3,6.7,17,6.4z M8.9,5.6
	c0.8,0,1.5,0.7,1.5,1.5S9.7,8.5,8.9,8.5C8.1,8.5,7.5,7.8,7.5,7S8.1,5.6,8.9,5.6z M15.1,6.3l0.1,1.4l-3.9,0.3l-0.1-1.4L15.1,6.3z
	 M3.2,3.4l0.3,3.4L2.1,6.9L1.7,3.6L3.2,3.4z M5.2,2.3l2.6,2.9l-1.1,1L4.1,3.2L5.2,2.3z M1.9,0.1c0.7-0.3,1.6,0.1,1.9,0.8
	S3.7,2.5,3,2.8S1.4,2.7,1.1,2S1.2,0.4,1.9,0.1z"></path>
</svg>
