<svg xmlns="http://www.w3.org/2000/svg" class="icon-rectangle-selection" height="20px" width="20px" viewBox="0 0 20 20">
  <path fill-rule="evenodd" d="M18.5,17 C19.3284271,17 20,17.6715729 20,18.5 C20,19.3284271 19.3284271,20 18.5,20 C17.6715729,20 17,19.3284271 17,18.5 C17,17.6715729 17.6715729,17 18.5,17 Z M1.5,17 C2.32842712,17 3,17.6715729 3,18.5 C3,19.3284271 2.32842712,20 1.5,20 C0.671572875,20 0,19.3284271 0,18.5 C0,17.6715729 0.671572875,17 1.5,17 Z M7,17.75 L7,19.25 L4,19.25 L4,17.75 L7,17.75 Z M11.5,17.75 L11.5,19.25 L8.5,19.25 L8.5,17.75 L11.5,17.75 Z M16,17.75 L16,19.25 L13,19.25 L13,17.75 L16,17.75 Z M19.25,13 L19.25,16 L17.75,16 L17.75,13 L19.25,13 Z M2.25,13 L2.25,16 L0.75,16 L0.75,13 L2.25,13 Z M19.25,8.5 L19.25,11.5 L17.75,11.5 L17.75,8.5 L19.25,8.5 Z M2.25,8.5 L2.25,11.5 L0.75,11.5 L0.75,8.5 L2.25,8.5 Z M19.25,4 L19.25,7 L17.75,7 L17.75,4 L19.25,4 Z M2.25,4 L2.25,7 L0.75,7 L0.75,4 L2.25,4 Z M18.5,0 C19.3284271,0 20,0.671572875 20,1.5 C20,2.32842712 19.3284271,3 18.5,3 C17.6715729,3 17,2.32842712 17,1.5 C17,0.671572875 17.6715729,0 18.5,0 Z M1.5,0 C2.32842712,0 3,0.671572875 3,1.5 C3,2.32842712 2.32842712,3 1.5,3 C0.671572875,3 0,2.32842712 0,1.5 C0,0.671572875 0.671572875,0 1.5,0 Z M7,0.75 L7,2.25 L4,2.25 L4,0.75 L7,0.75 Z M11.5,0.75 L11.5,2.25 L8.5,2.25 L8.5,0.75 L11.5,0.75 Z M16,0.75 L16,2.25 L13,2.25 L13,0.75 L16,0.75 Z"></path>
</svg>
