<svg width="20" height="20" viewBox="0 0 20 20" fill="none" xmlns="http://www.w3.org/2000/svg">
<g clip-path="url(#clip0_2130_13217)">
<path fill-rule="evenodd" clip-rule="evenodd" d="M4 6.88889C4 5.78432 3.10457 4.88889 2 4.88889C0.895431 4.88889 0 5.78432 0 6.88889C0 7.99345 0.895431 8.88889 2 8.88889C3.10457 8.88889 4 7.99345 4 6.88889ZM1.33333 6.88889C1.33333 6.5207 1.63181 6.22222 2 6.22222C2.36819 6.22222 2.66667 6.5207 2.66667 6.88889C2.66667 7.25707 2.36819 7.55555 2 7.55555C1.63181 7.55555 1.33333 7.25707 1.33333 6.88889Z" fill="black"/>
<path fill-rule="evenodd" clip-rule="evenodd" d="M8 4.44444C8 3.33987 7.10457 2.44444 6 2.44444C4.89543 2.44444 4 3.33987 4 4.44444C4 5.54901 4.89543 6.44444 6 6.44444C7.10457 6.44444 8 5.54901 8 4.44444ZM5.33333 4.44444C5.33333 4.07626 5.63181 3.77778 6 3.77778C6.36819 3.77778 6.66667 4.07626 6.66667 4.44444C6.66667 4.81263 6.36819 5.11111 6 5.11111C5.63181 5.11111 5.33333 4.81263 5.33333 4.44444Z" fill="black"/>
<path fill-rule="evenodd" clip-rule="evenodd" d="M12 7C12 5.89543 11.1046 5 10 5C8.89543 5 8 5.89543 8 7C8 8.10457 8.89543 9 10 9C11.1046 9 12 8.10457 12 7ZM9.33333 7C9.33333 6.63181 9.63181 6.33333 10 6.33333C10.3682 6.33333 10.6667 6.63181 10.6667 7C10.6667 7.36819 10.3682 7.66667 10 7.66667C9.63181 7.66667 9.33333 7.36819 9.33333 7Z" fill="black"/>
<path fill-rule="evenodd" clip-rule="evenodd" d="M12 2C12 0.895431 11.1046 0 10 0C8.89543 0 8 0.895431 8 2C8 3.10457 8.89543 4 10 4C11.1046 4 12 3.10457 12 2ZM9.33333 2C9.33333 1.63181 9.63181 1.33333 10 1.33333C10.3682 1.33333 10.6667 1.63181 10.6667 2C10.6667 2.36819 10.3682 2.66667 10 2.66667C9.63181 2.66667 9.33333 2.36819 9.33333 2Z" fill="black"/>
<path fill-rule="evenodd" clip-rule="evenodd" d="M4 2C4 0.895431 3.10457 0 2 0C0.895431 0 0 0.895431 0 2C0 3.10457 0.895431 4 2 4C3.10457 4 4 3.10457 4 2ZM1.33333 2C1.33333 1.63181 1.63181 1.33333 2 1.33333C2.36819 1.33333 2.66667 1.63181 2.66667 2C2.66667 2.36819 2.36819 2.66667 2 2.66667C1.63181 2.66667 1.33333 2.36819 1.33333 2Z" fill="black"/>
<line x1="0.75" y1="14" x2="0.75" y2="20" stroke="black" stroke-width="1.5"/>
<line x1="3.75" y1="11" x2="3.75" y2="20" stroke="black" stroke-width="1.5"/>
<line x1="6.75" y1="10" x2="6.75" y2="20" stroke="black" stroke-width="1.5"/>
<line x1="9.75" y1="10" x2="9.75" y2="20" stroke="black" stroke-width="1.5"/>
<line y1="13.25" x2="12" y2="13.25" stroke="black" stroke-width="1.5"/>
<line y1="16.25" x2="12" y2="16.25" stroke="black" stroke-width="1.5"/>
<line y1="19.25" x2="12" y2="19.25" stroke="black" stroke-width="1.5"/>
<path fill-rule="evenodd" clip-rule="evenodd" d="M13.7778 4L20 7L13 10L13.7778 4ZM14.9749 6.15691L14.7758 7.69272L16.5676 6.92481L14.9749 6.15691Z" fill="black"/>
<path fill-rule="evenodd" clip-rule="evenodd" d="M15.2287 0H18.1866L20 3.11775L16.9589 5L14 3.16864L15.2287 0ZM16.1038 1.33342L15.609 2.6095L16.9589 3.44498L18.2265 2.66039L17.4547 1.33342H16.1038Z" fill="black"/>
<path fill-rule="evenodd" clip-rule="evenodd" d="M19.3181 8L20 12.5342L17.4041 15L12 11.7917L19.3181 8ZM14.8702 11.8725L17.1946 13.2524L18.463 12.0476L18.1789 10.1582L14.8702 11.8725Z" fill="black"/>
<path d="M19 16H14V19H19V16Z" stroke="black" stroke-width="1.5"/>
</g>
<defs>
<clipPath id="clip0_2130_13217">
<rect width="20" height="20" fill="white"/>
</clipPath>
</defs>
</svg>
