<svg xmlns="http://www.w3.org/2000/svg" id="2d-seismic" viewBox="0 0 20 20">
    <path d="M3.75 3.75v3.167h3.167V3.75H3.75zm0-1.5h3.167V0h1.5v2.25h3.166V0h1.5v2.25h3.167V0h1.5v2.25H20v1.5h-2.25v3.167H20v1.5h-2.25v3.166H20v1.5h-2.25v3.167H20v1.5h-2.25V20h-1.5v-2.25h-3.167V20h-1.5v-2.25H8.417V20h-1.5v-2.25H3.75V20h-1.5v-2.25H0v-1.5h2.25v-3.167H0v-1.5h2.25V8.417H0v-1.5h2.25V3.75H0v-1.5h2.25V0h1.5v2.25zm12.5 1.5h-3.167v3.167h3.167V3.75zm-4.667 0H8.417v3.167h3.166V3.75zM3.75 8.417v3.166h3.167V8.417H3.75zm12.5 0h-3.167v3.166h3.167V8.417zm-4.667 0H8.417v3.166h3.166V8.417zM3.75 13.083v3.167h3.167v-3.167H3.75zm12.5 0h-3.167v3.167h3.167v-3.167zm-4.667 0H8.417v3.167h3.166v-3.167z"/>
  </svg>