<svg xmlns="http://www.w3.org/2000/svg" id="bathymetry" viewBox="0 0 20 20">
    <path d="m0 17.649c0.74551 0.9046 1.6542 1.6891 2.6781 2.3491l-2.5309 8.282e-4 -0.14707-0.13482-1.3115e-4 -2.2151zm17.483-10.912 0.29166 0.56176 0.27761 0.55273c2.4778 5.0247 3.0784 8.8873-1.1316 10.961-4.5161 2.2248-12.858 1.5488-15.792-4.0191-2.9343-5.5679 0.28395-11.773 4.8001-13.998 4.5161-2.2248 8.6201 0.37339 11.554 5.9413zm-10.892-4.5959c-4.2643 2.1007-6.4398 7.5821-4.1361 11.953 2.2349 4.2409 9.2646 5.6085 13.803 3.3729 2.9273-1.4421 2.9653-4.0146 0.22662-9.3976l-0.32832-0.63368c-2.7318-5.1837-6.0821-7.0108-9.5648-5.2951zm7.7726 5.238 0.24152 0.46728 0.22625 0.45756c1.5275 3.1683 1.847 5.604-0.83327 6.9244-2.9355 1.4461-8.3576 1.0067-10.265-2.6124-1.9073-3.6191 0.18457-7.6525 3.1201-9.0987 2.9355-1.4461 5.603 0.24271 7.5103 3.8618zm-6.8475-2.5165c-2.5193 1.2411-3.8081 4.4885-2.456 7.0541 1.3052 2.4767 5.5592 3.3043 8.2753 1.9663 1.6145-0.79537 1.5738-2.2519-0.29851-5.8047-1.6582-3.1465-3.558-4.1826-5.5207-3.2157zm3.7286 3.1586c0.88028 1.6704 1.1861 2.9553-0.16869 3.6227-1.3548 0.66744-3.8574 0.46463-4.7376-1.2057-0.88028-1.6704 0.085184-3.5319 1.44-4.1994 1.3548-0.66744 2.586 0.11202 3.4663 1.7824zm-2.8035-0.43705c-0.77431 0.38145-1.1765 1.3949-0.77602 2.1549 0.35677 0.67698 1.7086 0.97036 2.6097 0.62025l0.13832-0.060666 0.024551-0.013444c0.14728-0.090378 0.13309-0.2913-0.35101-1.2397l-0.16886-0.32508c-0.58462-1.1093-1.0339-1.3544-1.4767-1.1362zm8.2981-7.5837c1.1666 1.2579 2.2578 2.7887 3.2595 4.5581l-1.557e-4 3.2413c-0.26286-0.5368-0.54612-1.0928-0.84963-1.6687-1.3928-2.6428-2.9154-4.6939-4.5314-6.1305l2.1216-2.3415e-4zm-14.183 6.7503e-4c-0.97835 0.79163-1.8376 1.7189-2.5563 2.7416l-2.7978e-4 -2.3436c0.12274-0.13534 0.2476-0.26829 0.3745-0.39874l2.182 7.9021e-4z"/>
  </svg>