<svg xmlns="http://www.w3.org/2000/svg" id="drilling-risk" viewBox="0 0 20 20">
    <path d="m13.003 6 6.9963 14h-13.999l7.0027-14zm-4.0027-6v10.647l-1.5 2.999v-1.285l-5.941 3.017 2.941 2.6151 1.487-1.3221-1.61 3.219-4.377-3.89v-16h9zm4.0024 9.3536-4.5749 9.1464h9.1481l-4.5732-9.1464zm-0.005502 6.6464c0.30134 0 0.54386 0.093988 0.72755 0.28197 0.1837 0.18798 0.27554 0.42841 0.27554 0.72131 0 0.28853-0.091846 0.52678-0.27554 0.71475-0.1837 0.18798-0.42621 0.28197-0.72755 0.28197-0.29722 0-0.53767-0.093988-0.72136-0.28197-0.1837-0.18798-0.27554-0.42623-0.27554-0.71475s0.091846-0.52787 0.27554-0.71803c0.1837-0.19016 0.42415-0.28525 0.72136-0.28525zm0.7531-4.5v4h-1.5v-4h1.5zm-6.25-3.139-6 3.047v2.318l6-3.048v-2.317zm0-4-6 3.047v2.318l6-3.048v-2.317zm0-2.861h-6v4.226l6-3.048v-1.178z"/>
  </svg>