<svg xmlns="http://www.w3.org/2000/svg" id="free-air" viewBox="0 0 20 20">
    <path d="m13 12.5c2.0711 0 3.75 1.6789 3.75 3.75s-1.6789 3.75-3.75 3.75-3.75-1.6789-3.75-3.75h1.5c0 1.2426 1.0074 2.25 2.25 2.25s2.25-1.0074 2.25-2.25-1.0074-2.25-2.25-2.25h-13v-1.5h13zm-13-1.75v-1.5h16.23c1.2426 0 2.2696-1.0074 2.2696-2.25s-1.0074-2.25-2.25-2.25c-1.1909 0-2.1656 0.92516-2.2448 2.096l-0.0051908 0.15405h-1.5c0-2.0711 1.6789-3.75 3.75-3.75s3.75 1.6789 3.75 3.75c0 2.0043-1.5724 3.6413-3.5508 3.7448l-0.20016 0.004198 1e-3 1e-3h-0.019577-16.23zm7-10.75c2.0711 0 3.75 1.6789 3.75 3.75 0 2.0043-1.5724 3.6413-3.5508 3.7448l-0.19916 0.005198h-7v-1.5h7c1.2426 0 2.25-1.0074 2.25-2.25s-1.0074-2.25-2.25-2.25c-1.1909 0-2.1656 0.92516-2.2448 2.096l-0.0051908 0.15405h-1.5c0-2.0711 1.6789-3.75 3.75-3.75z"/>
  </svg>