<?xml version="1.0" encoding="UTF-8"?>
<svg viewBox="0 0 20 20" xmlns="http://www.w3.org/2000/svg">
<path d="m6.9959 0c2.123 0 4.32 0.667 6.362 1.93 3.313 1.058 5.181 2.286 6.05 3.974 1.082 2.099 0.584 4.669-0.715 8.68s-5.421 5.416-7.19 5.416c-2.249 0-4.375-1.433-5.985-4.033l-0.049-0.091c-0.88-1.978-2.008-3.576-3.002-4.986-1.788-2.534-3.333-4.723-1.909-7.405 1.175-2.214 3.522-3.485 6.438-3.485zm6.5645 3.5986-0.023267 0.11577c-0.27518 1.2373-1.2288 2.3317-2.9048 3.6999-0.16288 0.13297-0.33196 0.26876-0.55561 0.4468-0.013071 0.010405-0.43601 0.34644-0.55829 0.44408-2.6089 2.0834-3.6194 3.3927-3.5309 5.2212 0.29645 0.52842 0.58164 1.0881 0.84842 1.6837 1.319 2.111 2.976 3.271 4.667 3.271 1.964 0 4.8535-1.8682 5.772-4.453 1.125-3.486 1.61-5.823 0.784-7.428-0.61799-1.1986-2.0178-2.138-4.4985-3.0014zm1.2495 7.7642c0.60106 0.68819 0.7173 1.6484 0.35826 2.5946-0.17453 0.45959-0.61653 1.0376-1.326 1.7341-0.72982 0.92232-1.3595 1.403-2.0799 1.4839-0.80006 0.090441-1.4947-0.28281-2.6927-1.2443l-0.12751-0.13088c-0.80751-1.0618-1.1156-2.0818-0.78051-2.963 0.29889-0.78112 1.0578-1.2949 2.0716-1.493l0.09997-0.012637c0.48155-0.028211 0.91334-0.10714 1.5325-0.26179 0.1216-0.030574 0.1216-0.030574 0.24065-0.060883 1.4753-0.37924 2.0635-0.3764 2.7036 0.35402zm-2.3319 1.0992c-0.12164 0.030971-0.12164 0.030971-0.24887 0.062962-0.68027 0.16991-1.1839 0.26336-1.7539 0.30056-0.5226 0.11038-0.82572 0.32029-0.91219 0.54625-0.10949 0.2879 0.03573 0.79147 0.51895 1.4482 0.83419 0.66296 1.2694 0.89234 1.5123 0.86487 0.22455-0.025215 0.56733-0.28687 1.1355-0.99507l0.11609-0.10502c0.4367-0.32993 0.76266-0.74562 0.9199-1.1597 0.17293-0.45573 0.12743-0.83156-0.084858-1.0746-0.11256-0.12845-0.26644-0.12919-1.2029 0.11154zm-3.1428-10.632 0.016616 0.17449c0.053067 0.75783-0.055843 1.5443-0.40206 2.3062-0.88521 1.948-3.0737 3.1514-6.773 3.3642 0.3742 0.68196 0.89822 1.4415 1.5322 2.3394 0.3408 0.48364 0.69683 0.98846 1.0547 1.5237 0.516-1.4614 1.7519-2.7542 3.8188-4.4047 0.124-0.099017 0.54832-0.43615 0.56011-0.44554 0.21925-0.17453 0.38396-0.30682 0.54122-0.4352 1.6615-1.3564 2.395-2.2825 2.4315-3.2905-0.90007-0.50804-1.8413-0.88934-2.78-1.1321zm-2.3393-0.3106c-2.335 0-4.193 0.976-5.096 2.678-0.36554 0.68879-0.45161 1.3271-0.3127 2.0025 3.4991-0.1024 5.3351-1.0534 5.9969-2.5098 0.31099-0.68439 0.33911-1.434 0.19494-2.126-0.26485-0.032547-0.5256-0.044727-0.78315-0.044727z"/>
</svg>
