<svg xmlns="http://www.w3.org/2000/svg" id="gravity-field" viewBox="0 0 20 20">
    <path d="m6.2919 8.1417e-4c0.18923 0.53522 0.3637 1.0774 0.52291 1.6261 1.045 0.11862 2.1083 0.17839 3.1855 0.17839 0.96906 0 1.9268-0.048361 2.871-0.1428 0.10164-0.36135 0.21192-0.71765 0.32861-1.071l0.20136-0.58906 1.5968-8.1417e-4c-0.17871 0.47669-0.34502 0.95945-0.49852 1.4479 1.2626-0.19761 2.4949-0.48006 3.694-0.83934 0.0017556-0.0067092 0.0037254-0.012681 0.005697-0.018653l0.20136-0.58906 1.5968-8.1417e-4 0.0015693 1.5967c-0.2017 0.071276-0.4044 0.14046-0.60805 0.20752-0.34591 1.1487-0.61984 2.3282-0.81816 3.533 0.32147-0.099644 0.63964-0.20561 0.95496-0.31723l0.47092-0.1716 3.306e-4 1.596c-0.54143 0.19133-1.09 0.36755-1.6452 0.52817-0.10662 0.99321-0.16049 2.0031-0.16049 3.0255 0 1.0222 0.053847 2.0319 0.15886 3.0263 0.55682 0.15984 1.1054 0.33606 1.6468 0.52739l-3.306e-4 1.596c-0.46891-0.17568-0.94368-0.33936-1.4239-0.49067 0.197 1.2069 0.47073 2.3873 0.81539 3.5369 0.20449 0.066261 0.40718 0.13544 0.60888 0.20672l-3.306e-4 1.596-0.0082378-0.0031939-1.5901 0.0011578-0.20578-0.60547c-1.1994-0.35942-2.4321-0.64198-3.6923-0.84194 0.091814 0.30194 0.19096 0.59985 0.29484 0.89553l0.20023 0.55155-1.5964 3.305e-4c-0.19256-0.54468-0.36983-1.0966-0.53128-1.6552-0.94258-0.097391-1.9003-0.14575-2.8694-0.14575-1.0779 0-2.1419 0.059838-3.1887 0.17637-0.15691 0.54906-0.33084 1.0895-0.51945 1.623l-1.5964-3.305e-4c0.17181-0.45838 0.33215-0.92237 0.48066-1.3916-1.1511 0.19538-2.277 0.4602-3.375 0.78945-0.064944 0.20296-0.13361 0.40401-0.20435 0.60409l-1.5891-2.241e-4 -0.0079731 0.0029865 8.1435e-4 -1.5964c0.20041-0.070826 0.4018-0.13958 0.60414-0.20625 0.347-1.1496 0.62121-2.3299 0.81968-3.5357-0.48182 0.15034-0.95616 0.31392-1.4246 0.48948l8.1435e-4 -1.5964c0.54082-0.19113 1.0887-0.36719 1.6433-0.52768 0.10611-0.99371 0.15999-2.0037 0.15999-3.0262 0-1.0224-0.05387-2.0323-0.15893-3.0269-0.37041-0.10659-0.7374-0.22037-1.1012-0.34101l-0.54321-0.18606-8.1435e-4 -1.5964c0.46815 0.17544 0.94216 0.33891 1.4216 0.49006-0.19669-1.2068-0.47017-2.387-0.81465-3.5363-0.20437-0.065481-0.40576-0.13424-0.60617-0.20506l-8.1435e-4 -1.5964 1.5968 8.1417e-4 0.20562 0.60634c1.0984 0.3293 2.2246 0.59413 3.3744 0.79011-0.14817-0.47263-0.30916-0.93857-0.48172-1.3988l1.5968 8.1417e-4zm-0.016769 13.587c-1.1105 0.14441-2.2005 0.35321-3.2666 0.62208-0.16536 1.1852-0.40056 2.3475-0.70097 3.4832 1.0831-0.28883 2.1915-0.5165 3.3202-0.68132 0.28404-1.1159 0.5009-2.259 0.64741-3.424zm7.1404-0.039303c0.14324 1.1636 0.35737 2.3052 0.6376 3.4205 1.2394 0.16522 2.4534 0.40795 3.6386 0.7214-0.30271-1.134-0.53828-2.2958-0.7047-3.4798-1.1625-0.29507-2.3552-0.5169-3.5715-0.66214zm-3.4151-0.20249c-0.73959 0-1.4726 0.028169-2.198 0.083493-0.13022 1.1531-0.32633 2.286-0.58426 3.395 0.91549-0.085986 1.8438-0.12907 2.7823-0.12907 0.83095 0 1.654 0.033781 2.4679 0.10004-0.25696-1.1065-0.45225-2.2373-0.58243-3.3878-0.62214-0.040945-1.2514-0.06165-1.8854-0.06165zm-6.8101-5.9701 0.0024514 0.02224c0.073671 0.85727 0.11127 1.7249 0.11127 2.6012 0 0.88449-0.038298 1.76-0.11333 2.6251 1.0571-0.24707 2.1361-0.4366 3.2332-0.56692 0.050585-0.67893 0.075354-1.3664 0.075354-2.0597 0-0.6922-0.024691-1.3786-0.07324-2.0585-1.0992-0.12844-2.1782-0.31796-3.2357-0.5634zm13.617-7.9222e-4 -0.42136 0.096164c-1.0214 0.22138-2.0621 0.39075-3.1194 0.50519-0.048201 0.66785-0.07205 1.3426-0.07205 2.0229 0 0.6805 0.023863 1.3554 0.070799 2.024 1.2043 0.1291 2.386 0.33044 3.5421 0.59861-0.075078-0.86325-0.11335-1.7385-0.11335-2.6226 0-0.88421 0.038274-1.7595 0.11326-2.6242zm-8.8685 0.70729 0.03269 0.6076c0.018608 0.4336 0.028008 0.86958 0.028008 1.3078 0 0.64472-0.020349 1.2847-0.06044 1.9193 0.68109-0.047033 1.3687-0.070534 2.0618-0.070534 0.58882 0 1.1737 0.016962 1.7541 0.050424-0.040338-0.62699-0.060243-1.26-0.060243-1.8976 0-0.638 0.019927-1.2713 0.059192-1.8994-0.57938 0.035276-1.1642 0.052238-1.7531 0.052238-0.69308 0-1.3807-0.023501-2.062-0.06975zm-0.72018-4.9053 0.010422 0.037711c0.25338 1.0957 0.44671 2.2143 0.57634 3.3523 0.72353 0.057391 1.4562 0.085534 2.1955 0.085534 0.63407 0 1.2633-0.020705 1.8871-0.061475 0.12929-1.1505 0.32415-2.2812 0.58054-3.3884-0.8136 0.067795-1.6367 0.10158-2.4676 0.10158-0.93808 0-1.8661-0.043053-2.7822-0.12729zm10.471-0.86981-0.079072 0.0235c-1.1594 0.30312-2.3462 0.53862-3.5559 0.70202-0.28208 1.1122-0.49671 2.253-0.64128 3.4156 1.2186-0.14353 2.4114-0.36536 3.5756-0.65882 0.16523-1.185 0.40036-2.347 0.70066-3.4823zm-15.382 0.0016932 0.055802 0.2094c0.27419 1.0676 0.49107 2.1582 0.64716 3.2683 1.0643 0.27096 2.1543 0.47976 3.2645 0.62468-0.14598-1.1651-0.36251-2.3083-0.6451-3.4251-1.1297-0.16289-2.2381-0.39052-3.3223-0.67732z"/>
  </svg>