<svg xmlns="http://www.w3.org/2000/svg" id="log-set" viewBox="0 0 20 20">
    <path d="M17,3 L17,20 L0,20 L0,3 L17,3 Z M20,0 L20,19 L18.5,19 L18.5,1.5 L1,1.5 L1,0 L20,0 Z M1.5,13.229 L1.5,18.5 L5.5,18.5 L5.5,17.211 L1.5,13.229 Z M10.5,4.5 L7,4.5 L7,18.5 L10.5,18.5 L10.5,4.5 Z M15.5,4.5 L12,4.5 L12,18.5 L15.5,18.5 L15.5,4.5 Z M14.75,14.5 L14.75,16.5 L12.75,16.5 L12.75,14.5 L14.75,14.5 Z M1.5,8.244 L1.5,11.112 L5.5,15.094 L5.5,12.279 L1.5,8.244 Z M14.75,10.5 L14.75,12.5 L12.75,12.5 L12.75,10.5 L14.75,10.5 Z M5.5,4.5 L1.5,4.5 L1.5,6.113 L5.5,10.148 L5.5,4.5 Z M14.75,6.5 L14.75,8.5 L12.75,8.5 L12.75,6.5 L14.75,6.5 Z"/>
  </svg>