<svg xmlns="http://www.w3.org/2000/svg" id="offshore" viewBox="0 0 20 20">
    <path d="M20 18.412v1.57c-.812-.096-1.277-.562-1.945-1.566-.492-.738-.689-.916-1.04-.916-.352 0-.55.178-1.04.916C15.218 19.553 14.722 20 13.686 20c-1.034 0-1.53-.447-2.283-1.581-.493-.74-.69-.919-1.045-.919-.356 0-.557.179-1.054.916C8.538 19.553 8.038 20 7 20v-1.5c.36 0 .56-.18 1.059-.919C8.823 16.446 9.323 16 10.358 16c1.038 0 1.537.449 2.291 1.585.49.738.687.915 1.037.915.352 0 .549-.178 1.04-.916C15.483 16.447 15.98 16 17.015 16c1.035 0 1.531.447 2.288 1.584.313.47.507.713.697.828zm0-4v1.57c-.812-.096-1.277-.562-1.945-1.566-.492-.738-.689-.916-1.04-.916-.352 0-.55.178-1.04.916C15.218 15.553 14.722 16 13.686 16c-1.034 0-1.53-.447-2.283-1.581-.493-.74-.69-.919-1.045-.919-.356 0-.557.179-1.054.916C8.538 15.553 8.038 16 7 16v-1.5c.36 0 .56-.18 1.059-.919C8.823 12.446 9.323 12 10.358 12c1.038 0 1.537.449 2.291 1.585.49.738.687.915 1.037.915.352 0 .549-.178 1.04-.916C15.483 12.447 15.98 12 17.015 12c1.035 0 1.531.447 2.288 1.584.313.47.507.713.697.828zm0-4v1.57c-.812-.096-1.277-.562-1.945-1.566-.492-.738-.689-.916-1.04-.916-.352 0-.55.178-1.04.916C15.218 11.553 14.722 12 13.686 12c-1.034 0-1.53-.447-2.283-1.581-.493-.74-.69-.919-1.045-.919-.356 0-.557.179-1.054.916C8.538 11.553 8.038 12 7 12v-1.5c.36 0 .56-.18 1.059-.919C8.823 8.446 9.323 8 10.358 8c1.038 0 1.537.449 2.291 1.585.49.738.687.915 1.037.915.352 0 .549-.178 1.04-.916C15.483 8.447 15.98 8 17.015 8c1.035 0 1.531.447 2.288 1.584.313.47.507.713.697.828zM13.5 3.68l-1.815 4.066-1.37-.612L13.5 0l3.185 7.134-1.37.612L13.5 3.68zM0 9.796v-1.5h5.5V20H4V9.796H0z"/>
  </svg>