<svg xmlns="http://www.w3.org/2000/svg" width="20px" height="20px" viewBox="0 0 20 20">
  <path fill="#fff" d="M8.4 15.7c-1 0-1.8.8-1.8 1.8s.8 1.8 1.8 1.8 1.8-.8 1.8-1.8c-.1-1-.8-1.8-1.8-1.8zm0 2.6a.8.8 0 01-.8-.8c0-.4.3-.8.8-.8.4 0 .8.3.8.8 0 .4-.4.8-.8.8zM14.6 15.7c-1 0-1.8.8-1.8 1.8s.8 1.8 1.8 1.8 1.8-.8 1.8-1.8c-.1-1-.9-1.8-1.8-1.8zm0 2.6a.8.8 0 01-.8-.8c0-.4.3-.8.8-.8.4 0 .8.3.8.8-.1.4-.4.8-.8.8zM15 6.5H8c-.3 0-.5.2-.5.5s.2.5.5.5h7c.3 0 .5-.2.5-.5s-.2-.5-.5-.5zM14.6 9H8.3c-.2 0-.5.2-.5.5s.3.5.5.5h6.3c.3 0 .5-.2.5-.5s-.2-.5-.5-.5z"></path>
  <path fill="#fff" d="M19.8 4.3c-.2-.2-.5-.4-.8-.4H3.7l-.3-1.5c-.1-.3-.3-.5-.6-.7L.7.8C.4.7.1.8 0 1c-.1.2 0 .5.3.6l2.2.9L4.9 14c.1.5.5.8 1 .8h11.8c.3 0 .5-.2.5-.5s-.2-.5-.5-.5H5.8l-.3-1.4h12.1a1 1 0 001-.8L20 5.1c0-.3 0-.6-.2-.8zm-2.2 7.3H5.3L3.9 4.9H19l-1.4 6.7z"></path>
</svg>