<svg xmlns="http://www.w3.org/2000/svg" id="pipeline" viewBox="0 0 20 20">
    <path d="M5.5 4.02a5.97 5.97 0 0 0-1.5.321V0h4v4.341a5.97 5.97 0 0 0-1.5-.32V1.5h-1v2.52zm0 11.96v2.52h1v-2.52a5.97 5.97 0 0 0 1.5-.321V20H4v-4.341a5.97 5.97 0 0 0 1.5.32zm3.128-3.668L6.764 11.29a1.493 1.493 0 0 1-1.476.03l-1.865 1.047A3.49 3.49 0 0 0 6 13.5c1.047 0 1.987-.46 2.628-1.188zM9.355 11a3.501 3.501 0 0 0-2.567-4.41v2.134a1.5 1.5 0 0 1 .712 1.26L9.355 11zm-6.688.072l1.834-1.03L4.5 10a1.5 1.5 0 0 1 .789-1.32V6.571a3.501 3.501 0 0 0-2.622 4.5zM6 15A5 5 0 1 1 6 5a5 5 0 0 1 0 10zm8.5-13.5v17h1v-17h-1zM13 0h4v20h-4V0z"/>
  </svg>