<svg xmlns="http://www.w3.org/2000/svg" id="platform" viewBox="0 0 20 20">
    <path d="M9.662 0h.676l6.333 12.667-1.342.67-.415-.83L10 9.13l-4.914 3.378-.415.83-1.342-.67L9.662 0zM2 16h1.5v4H2v-4zm14.5 0H18v4h-1.5v-4zM0 14h20v1.5H0V14zm11.723-7.876L10 2.68 8.277 6.124 10 7.31l1.723-1.185zM12.4 7.48l-1.076.74 2.203 1.515L12.4 7.479zM6.473 9.734l2.203-1.515-1.076-.74-1.127 2.255zM6.716 20H4.6c.091-.097.194-.202.313-.321-.053.053.556-.548.723-.72.963-.99 1.415-1.757 1.415-2.603h1.5c0 1.335-.626 2.4-1.835 3.644zm8.686 0h-2.116c-1.21-1.244-1.836-2.309-1.836-3.644h1.5c0 .846.452 1.612 1.416 2.603.167.172.776.773.723.72.119.119.222.224.313.321z"/>
  </svg>