<svg xmlns="http://www.w3.org/2000/svg" id="points" viewBox="0 0 20 20">
    <path d="M3 4.5a1.5 1.5 0 1 0 0-3 1.5 1.5 0 0 0 0 3zM3 6a3 3 0 1 1 0-6 3 3 0 0 1 0 6zm0 12.5a1.5 1.5 0 1 0 0-3 1.5 1.5 0 0 0 0 3zM3 20a3 3 0 1 1 0-6 3 3 0 0 1 0 6zm6-7.5a1.5 1.5 0 1 0 0-3 1.5 1.5 0 0 0 0 3zM9 14a3 3 0 1 1 0-6 3 3 0 0 1 0 6zm3-9.5a1.5 1.5 0 1 0 0-3 1.5 1.5 0 0 0 0 3zM12 6a3 3 0 1 1 0-6 3 3 0 0 1 0 6zm5 4.5a1.5 1.5 0 1 0 0-3 1.5 1.5 0 0 0 0 3zm0 1.5a3 3 0 1 1 0-6 3 3 0 0 1 0 6zm0 6.5a1.5 1.5 0 1 0 0-3 1.5 1.5 0 0 0 0 3zm0 1.5a3 3 0 1 1 0-6 3 3 0 0 1 0 6z"/>
  </svg>