<svg xmlns="http://www.w3.org/2000/svg" id="polylineset" viewBox="0 0 20 20">
    <path d="m17 8c1.6569 0 3 1.3431 3 3 0 1.6569-1.3431 3-3 3-0.5559 0-1.0765-0.1512-1.5229-0.41471l-1.8918 1.8918c0.26351 0.44639 0.41471 0.96697 0.41471 1.5229 0 1.6569-1.3431 3-3 3-1.6569 0-3-1.3431-3-3s1.3431-3 3-3c0.5559 0 1.0765 0.1512 1.5229 0.41471l1.8918-1.8918c-0.26351-0.44639-0.41471-0.96697-0.41471-1.5229 0-1.6569 1.3431-3 3-3zm-6 7.5c-0.82843 0-1.5 0.67157-1.5 1.5s0.67157 1.5 1.5 1.5 1.5-0.67157 1.5-1.5-0.67157-1.5-1.5-1.5zm6-15.5c1.6569 0 3 1.3431 3 3s-1.3431 3-3 3c-0.5559 0-1.0765-0.1512-1.5229-0.41471l-2.8918 2.8918c0.26351 0.44639 0.41471 0.96697 0.41471 1.5229 0 1.6569-1.3431 3-3 3-1.6569 0-3-1.3431-3-3 0-1.6569 1.3431-3 3-3 0.5559 0 1.0765 0.1512 1.5229 0.41471l2.8918-2.8918c-0.26351-0.44639-0.41471-0.96697-0.41471-1.5229 0-1.6569 1.3431-3 3-3zm0 9.5c-0.82843 0-1.5 0.67157-1.5 1.5s0.67157 1.5 1.5 1.5 1.5-0.67157 1.5-1.5-0.67157-1.5-1.5-1.5zm-8-9.5c1.6569 0 3 1.3431 3 3s-1.3431 3-3 3c-0.5559 0-1.0765-0.1512-1.5229-0.41471l-1.8918 1.8918c0.26351 0.44639 0.41471 0.96697 0.41471 1.5229 0 1.6569-1.3431 3-3 3s-3-1.3431-3-3c0-1.6569 1.3431-3 3-3 0.5559 0 1.0765 0.1512 1.5229 0.41471l1.8918-1.8918c-0.26351-0.44639-0.41471-0.96697-0.41471-1.5229 0-1.6569 1.3431-3 3-3zm1 8.5c-0.82843 0-1.5 0.67157-1.5 1.5 0 0.82843 0.67157 1.5 1.5 1.5 0.82843 0 1.5-0.67157 1.5-1.5 0-0.82843-0.67157-1.5-1.5-1.5zm-7-1c-0.82843 0-1.5 0.67157-1.5 1.5s0.67157 1.5 1.5 1.5 1.5-0.67157 1.5-1.5-0.67157-1.5-1.5-1.5zm6-6c-0.82843 0-1.5 0.67157-1.5 1.5s0.67157 1.5 1.5 1.5 1.5-0.67157 1.5-1.5-0.67157-1.5-1.5-1.5zm8 0c-0.82843 0-1.5 0.67157-1.5 1.5s0.67157 1.5 1.5 1.5 1.5-0.67157 1.5-1.5-0.67157-1.5-1.5-1.5z"/>
  </svg>