<?xml version="1.0" standalone="no"?>
<!DOCTYPE svg PUBLIC "-//W3C//DTD SVG 20010904//EN"
 "http://www.w3.org/TR/2001/REC-SVG-20010904/DTD/svg10.dtd">
<svg version="1.0" xmlns="http://www.w3.org/2000/svg"
 width="1280.000000pt" height="893.000000pt" viewBox="0 0 1280.000000 893.000000"
 preserveAspectRatio="xMidYMid meet">
<metadata>
Created by potrace 1.15, written by Peter Selinger 2001-2017
</metadata>
<g transform="translate(0.000000,893.000000) scale(0.100000,-0.100000)"
fill="#000000" stroke="none">
<path d="M4104 8920 c-11 -4 -33 -22 -47 -40 -15 -17 -31 -29 -36 -25 -5 3
-12 1 -16 -4 -3 -5 3 -14 12 -20 17 -10 17 -10 1 -11 -10 0 -18 -4 -18 -10 0
-5 5 -10 11 -10 8 0 8 -4 0 -14 -9 -11 -9 -15 1 -19 10 -4 10 -8 -2 -16 -12
-9 -13 -12 -1 -20 11 -7 11 -9 0 -14 -12 -5 -12 -7 0 -15 11 -8 11 -10 0 -15
-12 -5 -12 -7 0 -15 9 -6 10 -12 2 -16 -6 -4 -3 -14 9 -26 11 -11 20 -24 20
-30 0 -6 -57 -10 -150 -10 -86 0 -150 4 -150 9 0 5 6 16 13 23 14 14 16 75 4
95 -4 6 -1 14 5 17 10 5 10 7 -1 12 -11 5 -11 8 0 15 12 8 12 10 0 18 -9 6
-10 10 -2 16 9 5 9 10 0 21 -8 10 -8 14 0 14 6 0 11 5 11 10 0 6 -9 10 -19 10
-10 0 -21 7 -25 15 -9 25 -69 55 -110 55 -31 0 -45 -7 -78 -40 -22 -22 -44
-38 -48 -35 -5 3 -11 1 -14 -4 -3 -5 2 -12 11 -15 15 -6 15 -8 3 -17 -13 -8
-13 -10 0 -19 11 -7 12 -10 2 -10 -9 0 -11 -7 -7 -20 4 -13 2 -20 -6 -20 -10
0 -10 -3 -2 -11 6 -6 9 -18 6 -25 -3 -8 1 -14 8 -14 11 0 11 -3 -1 -10 -12 -8
-13 -11 -1 -19 11 -7 11 -9 0 -13 -11 -4 -10 -8 4 -22 9 -10 17 -22 17 -27 0
-5 -501 -9 -1285 -9 -1278 0 -1285 0 -1285 20 0 11 4 20 10 20 5 0 8 15 5 35
-2 20 0 35 6 35 6 0 7 6 3 12 -12 19 -12 48 -1 48 5 0 4 7 -4 16 -10 13 -10
17 0 24 10 6 9 10 -5 19 -11 6 -13 11 -6 11 17 0 15 20 -3 20 -8 0 -19 9 -25
20 -36 67 -159 64 -204 -4 -10 -16 -22 -23 -31 -20 -20 8 -19 -6 3 -22 16 -13
16 -13 0 -14 -20 0 -25 -20 -5 -20 8 0 7 -4 -3 -10 -13 -9 -13 -11 0 -21 12
-8 12 -12 2 -16 -10 -4 -10 -8 -1 -19 9 -11 9 -14 -1 -14 -10 0 -10 -3 -1 -14
9 -11 9 -15 -1 -19 -10 -4 -10 -7 1 -15 11 -8 11 -10 0 -15 -11 -5 -10 -8 4
-17 9 -6 17 -18 17 -25 0 -13 -25 -15 -145 -15 -80 0 -145 4 -145 9 0 5 7 14
15 21 12 10 13 16 4 26 -9 11 -8 14 1 14 10 0 10 3 1 14 -9 11 -9 15 1 19 10
4 10 7 -1 15 -11 8 -11 10 0 15 12 5 12 7 0 15 -11 8 -11 10 0 15 12 5 11 8
-1 17 -12 9 -12 13 -2 17 10 4 10 8 1 19 -8 10 -8 14 0 14 6 0 11 5 11 10 0 6
-6 10 -14 10 -8 0 -30 16 -49 35 -29 29 -42 35 -79 35 -43 0 -108 -30 -108
-50 0 -6 -12 -16 -27 -22 -22 -9 -24 -12 -11 -15 21 -5 24 -19 6 -26 -10 -4
-9 -8 2 -16 12 -8 12 -11 1 -11 -7 0 -11 -6 -8 -14 3 -7 0 -19 -6 -25 -7 -7
-7 -11 -1 -11 6 0 10 -21 9 -47 -2 -31 3 -53 13 -62 14 -14 11 -17 -25 -27
-85 -25 -143 -72 -143 -118 0 -37 37 -83 87 -107 48 -24 51 -24 453 -29 l405
-5 520 -385 c286 -211 530 -389 542 -395 25 -11 30 -31 11 -38 -9 -3 -7 -10 7
-21 18 -14 18 -15 3 -16 -21 0 -24 -16 -5 -23 9 -4 8 -8 -3 -16 -13 -10 -13
-12 -1 -20 12 -8 12 -12 2 -24 -9 -12 -9 -16 1 -19 10 -4 10 -8 -1 -21 -7 -10
-9 -17 -3 -17 11 0 11 -49 -1 -67 -4 -6 -1 -13 5 -16 10 -3 10 -7 -1 -20 -9
-11 -9 -17 -2 -17 8 0 11 -960 11 -3596 0 -1978 3 -3600 6 -3605 3 -5 68 -9
145 -9 l139 0 0 3585 c0 3180 2 3585 15 3585 8 0 15 5 15 10 0 6 -7 10 -15 10
-8 0 -15 5 -15 10 0 6 7 10 15 10 21 0 19 20 -2 20 -17 1 -17 1 0 14 21 16 22
26 2 26 -8 0 -15 5 -15 10 0 6 7 10 15 10 8 0 15 5 15 10 0 6 -7 10 -15 10 -8
0 -15 5 -15 10 0 6 7 10 15 10 8 0 15 5 15 10 0 6 -7 10 -15 10 -8 0 -15 5
-15 10 0 6 7 10 15 10 8 0 15 5 15 10 0 6 -7 10 -15 10 -8 0 -15 5 -15 10 0 6
7 10 15 10 8 0 15 5 15 10 0 6 -7 10 -15 10 -18 0 -20 16 -2 23 9 4 8 8 -3 16
-13 10 -13 12 0 22 11 8 12 12 3 16 -16 6 -17 33 -2 33 6 0 30 16 54 35 l43
36 154 -65 c598 -249 1176 -389 1848 -448 187 -16 724 -16 905 0 284 26 553
66 826 123 53 10 66 9 220 -30 307 -77 582 -111 908 -111 l196 -1 170 -124
c94 -69 175 -126 180 -128 7 -3 11 -741 13 -2180 l3 -2177 84 0 85 0 0 2085
c0 1431 3 2085 10 2085 7 0 9 34 7 95 -3 82 -2 95 13 100 10 3 70 -24 146 -65
606 -333 1263 -556 1939 -659 309 -47 443 -56 845 -56 230 0 388 -4 392 -9 4
-6 -3 -15 -15 -21 -12 -6 -23 -19 -25 -30 -8 -36 24 -45 161 -45 111 0 128 -2
118 -14 -10 -12 21 -38 179 -150 105 -75 195 -136 199 -136 18 0 21 -172 21
-1246 l0 -1124 45 0 45 0 0 1124 c0 617 3 1150 7 1182 l6 59 151 113 c223 166
213 157 197 176 -12 15 0 16 141 16 123 0 158 3 176 16 29 20 28 42 -3 56 -19
8 -22 14 -14 24 6 7 9 28 7 46 -6 61 -89 65 -96 4 -3 -23 -8 -26 -43 -26 -34
0 -39 3 -39 23 0 35 -42 55 -75 37 -14 -7 -25 -22 -25 -33 0 -19 -5 -20 -112
-13 -678 42 -1438 271 -2067 622 -388 217 -696 440 -1038 753 -82 74 -83 76
-83 123 0 36 -4 48 -15 48 -8 0 -15 4 -15 8 0 15 -51 33 -74 26 -11 -4 -32
-15 -45 -26 -21 -16 -25 -27 -24 -69 l2 -49 -49 -25 c-50 -25 -110 -33 -110
-15 0 6 5 10 10 10 6 0 10 28 10 63 0 58 -2 65 -30 85 -37 27 -84 28 -110 2
-11 -11 -24 -20 -28 -20 -4 0 -8 -29 -9 -65 -1 -36 3 -65 8 -65 5 0 9 -4 9
-10 0 -7 -258 -10 -753 -10 l-753 0 4 70 c4 66 3 70 -24 94 -37 32 -81 33
-116 1 -23 -20 -28 -32 -28 -73 l0 -49 -56 -22 c-63 -24 -116 -29 -96 -9 15
15 16 138 1 138 -6 0 -17 7 -25 15 -29 29 -62 29 -102 2 -36 -25 -37 -28 -37
-84 1 -32 4 -63 8 -69 4 -7 -2 -14 -16 -18 -38 -9 -77 -45 -77 -71 0 -26 7
-23 -237 -91 -196 -53 -187 -54 -352 6 -154 55 -368 147 -466 200 -33 18 -89
48 -125 68 -317 171 -687 455 -957 735 -91 94 -113 123 -113 146 0 39 -32 77
-90 106 -40 20 -47 28 -43 46 3 11 12 23 19 26 8 3 11 10 7 16 -11 18 -11 47
0 54 5 3 3 10 -4 15 -11 8 -11 11 -1 15 10 4 10 8 1 19 -9 11 -8 14 2 14 10 0
10 3 2 11 -6 6 -9 18 -6 25 3 8 -1 14 -8 14 -9 1 -8 5 5 15 18 14 18 15 -6 24
-14 5 -28 16 -31 24 -7 18 -68 47 -99 46 -12 0 -32 -4 -44 -9z m446 -673 c192
-190 319 -297 520 -441 311 -222 656 -402 988 -517 48 -17 94 -33 102 -36 19
-7 -7 -13 -216 -52 -724 -135 -1473 -129 -2209 15 -403 79 -896 235 -1243 392
l-43 19 439 352 440 351 440 0 c276 0 460 4 491 11 28 6 67 23 88 39 21 16 38
29 38 29 1 1 75 -72 165 -162z m-3269 35 c230 -173 533 -361 849 -526 l145
-76 -111 0 -110 0 -435 321 c-238 177 -436 323 -438 325 -2 2 5 4 16 4 11 0
49 -22 84 -48z m1433 -263 c-214 -171 -395 -313 -403 -316 -26 -11 -373 173
-630 334 -139 87 -421 280 -421 288 0 3 415 5 922 5 l921 0 -389 -311z m6528
-562 c25 -23 93 -83 150 -133 826 -723 1883 -1175 2942 -1257 94 -8 151 -16
153 -23 3 -9 -107 -12 -418 -13 l-422 -1 6 40 c4 33 1 41 -19 55 -31 20 -46
19 -71 -4 -30 -28 -74 -30 -103 -3 -13 12 -27 22 -31 22 -22 0 -59 -25 -59
-40 0 -15 -17 -18 -127 -23 -1019 -52 -2069 189 -2993 688 -88 48 -160 90
-160 95 0 4 122 104 271 221 149 117 273 218 276 226 4 10 59 13 273 13 261 0
268 0 301 23 58 39 50 77 -27 123 -10 6 -14 15 -10 22 11 18 17 15 68 -31z
m-2177 23 c4 -6 -7 -10 -27 -9 -27 0 -30 2 -13 9 27 12 33 12 40 0z m1970 0
c4 -6 -7 -10 -27 -10 -25 0 -29 3 -18 10 19 13 37 13 45 0z m-2335 -145 c20
-11 73 -14 243 -15 173 0 221 -3 232 -14 8 -8 73 -56 145 -107 l130 -94 -147
-3 c-302 -7 -651 37 -956 119 l-81 22 179 49 c98 26 181 50 183 53 10 9 47 4
72 -10z m1726 -23 c-16 -27 -97 -67 -178 -89 -118 -32 -354 -78 -479 -93 l-96
-12 -104 76 c-57 41 -117 87 -134 100 l-30 25 513 1 c282 0 511 -4 508 -8z
m-136 -106 c0 -1 -67 -55 -149 -120 -143 -111 -151 -116 -197 -116 -42 0 -60
8 -141 61 -51 34 -92 63 -90 65 1 2 61 12 132 23 127 19 330 61 390 80 32 10
55 13 55 7z m3260 -1152 c0 -23 -3 -25 -37 -22 -41 3 -59 32 -26 41 47 12 63
8 63 -19z m1120 -14 c0 -5 -18 -10 -40 -10 -22 0 -40 5 -40 10 0 6 18 10 40
10 22 0 40 -4 40 -10z m-391 -94 c-2 -2 -49 -38 -103 -80 -62 -48 -108 -76
-124 -76 -20 0 -187 107 -236 151 -6 5 97 9 229 9 131 0 236 -2 234 -4z"/>
</g>
</svg>
