<svg xmlns="http://www.w3.org/2000/svg" id="regular-height-field" viewBox="0 0 20 20">
    <path d="M5.82018897,4 L4.78227473,5.5 L4.22970585,5.5 L1.82970585,17.5 L18.1702941,17.5 L15.7702941,5.5 L14.1913979,5.5 L13.1601479,4 L17,4 L20,19 L0,19 L3,4 L5.82018897,4 Z M7,12.457738 L4.64311969,16.3858718 L3.35688031,15.6141282 L7,9.54226203 L10.6431197,15.6141282 L9.35688031,16.3858718 L7,12.457738 Z M9.5,3.30784524 L6.61442394,7.43009676 L5.38557606,6.56990324 L9.5,0.692154755 L13.6144239,6.56990324 L12.3855761,7.43009676 L9.5,3.30784524 Z M14.8640013,13.8974992 L13,10.9150972 L11.1359987,13.8974992 L9.86400127,13.1025008 L13,8.08490283 L16.1359987,13.1025008 L14.8640013,13.8974992 Z"/>
  </svg>