<svg width="20" height="20" viewBox="0 0 20 20" fill="none" xmlns="http://www.w3.org/2000/svg">
<path fill-rule="evenodd" clip-rule="evenodd" d="M5.79353 1.44672H6.2998V0H7.7998V1.44672H13.3217V0H14.8217V1.44672H15.328V0H16.828V1.44672H17.3343V2.94672H15.8097C15.8929 3.2489 16.048 3.60136 16.3056 3.92248C16.6892 4.4005 17.3247 4.84225 18.3961 4.92628L18.2788 6.42168C16.7922 6.30509 15.7767 5.6601 15.1357 4.86122C15.064 4.77183 14.9972 4.68093 14.9353 4.5891C14.0692 5.82604 12.7702 6.87061 11.3108 7.60448L11.3108 20H9.81077L9.81077 7.58734C7.99303 6.55542 6.65679 5.23617 5.79759 4.06795C5.3291 4.89272 4.69017 5.43385 4.01556 5.76099C3.12163 6.19448 2.20068 6.23641 1.59075 6.13148L1.84508 4.65319C2.18396 4.71149 2.78192 4.69215 3.36106 4.41131C3.84598 4.17616 4.34695 3.74484 4.67878 2.94672H3.29039V1.44672H4.29353V0H5.79353V1.44672ZM6.84049 2.94672C7.45292 3.83818 8.43989 4.90961 9.81077 5.82602V2.94672H6.84049ZM11.3108 2.94672H14.1615C13.6431 4.0537 12.621 5.10041 11.3108 5.89274V2.94672ZM8.49433 8.67949C6.36211 9.33241 4.50512 9.46471 2.28726 9.46471V7.96471C4.43609 7.96471 6.12545 7.83613 8.05512 7.24523L8.49433 8.67949ZM12.3857 8.65902C14.3364 9.43685 15.7458 9.5608 18.4093 9.30452L18.2656 7.81142C15.7546 8.05303 14.6023 7.92803 12.9412 7.2657L12.3857 8.65902Z" fill="#7FFFD4"/>
</svg>
