<svg width="20" height="20" viewBox="0 0 20 20" fill="none" xmlns="http://www.w3.org/2000/svg">
<path fill-rule="evenodd" clip-rule="evenodd" d="M10.5536 2.27667C10.2032 3.06059 10.084 4.16317 10.1288 5.2611C10.1591 6.00334 10.2615 6.68269 10.3837 7.18843C10.5507 7.17354 10.7098 7.17489 10.8542 7.18531L10.8931 7.18836C11.1109 5.93976 11.1627 5.03378 11.1307 4.31152C11.0936 3.47368 10.9434 2.85385 10.7694 2.17018C10.7446 2.10568 10.7208 2.04801 10.6981 1.99657C10.6801 2.03007 10.6625 2.06392 10.6452 2.09781L10.6144 2.15838L10.5925 2.20145C10.5806 2.22486 10.5673 2.25094 10.5536 2.27667ZM11.3867 0.443C11.7469 0.702531 11.9918 1.15747 12.1879 1.68049L12.2023 1.71886L12.2124 1.75857C12.3937 2.46958 12.5841 3.22522 12.6292 4.24516C12.6742 5.26065 12.5748 6.50739 12.2204 8.23677L12.0372 9.13076L11.1956 8.77786C11.127 8.74908 10.9549 8.69647 10.7462 8.68142C10.5381 8.6664 10.3503 8.69265 10.2063 8.76199L9.49468 9.10457L9.18927 8.37627C8.90235 7.69209 8.67933 6.52935 8.63004 5.3223C8.58076 4.11547 8.69874 2.72892 9.19852 1.63271L9.2102 1.60708L9.22377 1.5824C9.23524 1.56154 9.24758 1.53718 9.26699 1.49883L9.26703 1.49876L9.30982 1.4146C9.35102 1.33407 9.40384 1.2332 9.46556 1.12815C9.57566 0.94074 9.76532 0.64784 10.0417 0.449314C10.1905 0.342416 10.4004 0.23665 10.6618 0.222232C10.9354 0.20715 11.1835 0.29656 11.3867 0.443ZM10.6295 11.3749C10.7791 11.3749 10.9003 11.2536 10.9003 11.1041C10.9003 10.9545 10.7791 10.8333 10.6295 10.8333C10.48 10.8333 10.3587 10.9545 10.3587 11.1041C10.3587 11.2536 10.48 11.3749 10.6295 11.3749ZM10.6295 12.8749C11.6075 12.8749 12.4003 12.0821 12.4003 11.1041C12.4003 10.1261 11.6075 9.3333 10.6295 9.3333C9.65155 9.3333 8.85875 10.1261 8.85875 11.1041C8.85875 12.0821 9.65155 12.8749 10.6295 12.8749ZM15.8712 13.829C16.8234 14.3775 17.6919 15.0672 18.1675 15.7821C18.1819 15.8074 18.1968 15.8327 18.2102 15.8552L18.235 15.8967L18.2697 15.9551C18.2891 15.9879 18.3084 16.0208 18.3271 16.0539C18.2715 16.0456 18.21 16.0349 18.1422 16.0214C17.4713 15.8034 16.8671 15.5993 16.1389 15.1832C15.5112 14.8245 14.7729 14.2968 13.8337 13.4458L13.8571 13.4145C13.943 13.298 14.0291 13.1643 14.1057 13.0151C14.5985 13.1819 15.2275 13.4582 15.8712 13.829ZM17.7986 17.4823C18.3455 17.5958 18.8609 17.6318 19.2727 17.4659C19.505 17.3722 19.7132 17.2102 19.8465 16.9709C19.974 16.7422 19.9967 16.5082 19.9858 16.3253C19.9655 15.9857 19.8192 15.6689 19.7196 15.4757C19.6637 15.3674 19.6066 15.2689 19.5606 15.1911L19.5123 15.1099C19.4902 15.073 19.4762 15.0495 19.4647 15.0287L19.451 15.004L19.4356 14.9805C18.7758 13.9725 17.6666 13.1322 16.62 12.5292C15.5732 11.9262 14.4711 11.4937 13.7394 11.3709L12.9606 11.2401L12.8702 12.0247C12.8518 12.1835 12.7737 12.3563 12.6499 12.5242C12.5257 12.6926 12.3893 12.81 12.3283 12.8526L11.5805 13.3756L12.2384 14.008C13.5112 15.2313 14.5121 15.9812 15.3946 16.4855C16.281 16.9921 17.0216 17.2347 17.7195 17.4613L17.7584 17.4739L17.7986 17.4823ZM3.15203 15.8923C4.00309 15.7781 5.00363 15.2998 5.91398 14.6844C6.52941 14.2684 7.05344 13.8241 7.41936 13.4542C7.31888 13.32 7.23641 13.184 7.16936 13.0557L7.15149 13.0209C5.97489 13.4922 5.17703 13.9245 4.57947 14.3314C3.88629 14.8035 3.43801 15.2572 2.94798 15.7647C2.90615 15.8197 2.86961 15.8702 2.83778 15.9166C2.87574 15.9143 2.91378 15.9114 2.95172 15.9084L3.01943 15.9027L3.06756 15.8986C3.09374 15.8965 3.12295 15.8941 3.15203 15.8923ZM1.15422 16.1477C1.18558 15.7048 1.44383 15.2573 1.7856 14.8155L1.81067 14.7831L1.83913 14.7536C2.34863 14.2256 2.89129 13.6663 3.73512 13.0917C4.57528 12.5195 5.68803 11.9485 7.3454 11.3407L8.20217 11.0265L8.34447 11.9279C8.35607 12.0014 8.40181 12.1754 8.49873 12.3608C8.59537 12.5457 8.71646 12.6917 8.85118 12.7778L9.51672 13.203L9.0578 13.8457C8.62667 14.4495 7.75489 15.2505 6.75406 15.9271C5.75342 16.6035 4.51197 17.2322 3.31673 17.3835L3.28879 17.387L3.26066 17.3884C3.23691 17.3896 3.20973 17.392 3.16698 17.3956L3.16678 17.3956L3.07269 17.4035C2.98252 17.4108 2.86895 17.4189 2.74714 17.4216C2.52984 17.4265 2.18097 17.4192 1.8668 17.2885C1.69764 17.2181 1.49731 17.0952 1.34756 16.8803C1.19092 16.6556 1.13652 16.3975 1.15422 16.1477ZM13.0724 2.07971C13.3627 2.11467 13.8965 2.25078 14.4436 2.54858C14.9863 2.84398 15.4993 3.27461 15.8214 3.87534L17.1434 3.16648C16.6465 2.2399 15.8821 1.62374 15.1608 1.23111C14.4439 0.84089 13.7271 0.647736 13.2519 0.590476L13.0724 2.07971ZM13.4519 4.1168C13.4876 4.12424 13.5924 4.1561 13.7011 4.21864C13.8114 4.28214 13.8681 4.3439 13.89 4.38318L15.2012 3.65471C15.0017 3.29556 14.6988 3.06219 14.4494 2.91864C14.1983 2.77412 13.9435 2.68701 13.7578 2.64833L13.4519 4.1168ZM13.4896 17.9249C14.0533 17.6598 14.4788 17.3097 14.6786 17.0964L15.7734 18.1217C15.4462 18.4711 14.8666 18.9349 14.128 19.2823C13.3849 19.6318 12.436 19.8839 11.3949 19.7366L11.605 18.2514C12.2799 18.3469 12.9305 18.1878 13.4896 17.9249ZM12.582 16.3385C12.6966 16.2879 12.7843 16.2222 12.8114 16.1978L13.8147 17.3128C13.6738 17.4397 13.4528 17.5937 13.1878 17.7107C12.9246 17.8269 12.5573 17.9332 12.1497 17.8817L12.3376 16.3935C12.3821 16.3992 12.4655 16.3899 12.582 16.3385ZM1.65485 13.543C1.56879 13.2636 1.47609 12.7205 1.52574 12.0996C1.57498 11.4837 1.75987 10.8399 2.17774 10.3014L0.992654 9.38184C0.348121 10.2125 0.0959629 11.1614 0.030509 11.98C-0.0345443 12.7936 0.0803945 13.527 0.221305 13.9845L1.65485 13.543ZM3.36171 12.3681C3.35399 12.3324 3.34048 12.2237 3.35345 12.099C3.36662 11.9724 3.39996 11.8954 3.42697 11.8595L2.22833 10.9577C1.98132 11.286 1.89126 11.6577 1.8615 11.9439C1.83153 12.232 1.85556 12.5003 1.8957 12.6856L3.36171 12.3681Z" fill="#00BFFF"/>
</svg>
