<?xml version="1.0" encoding="utf-8"?>
<!-- Generator: Adobe Illustrator 24.0.1, SVG Export Plug-In . SVG Version: 6.00 Build 0)  -->
<svg version="1.1" id="Layer_1" xmlns="http://www.w3.org/2000/svg" xmlns:xlink="http://www.w3.org/1999/xlink" x="0px" y="0px"
	 viewBox="0 0 37 37" style="enable-background:new 0 0 37 37;" xml:space="preserve">
<path style="fill:#FFFFFF;" d="M20,0L20,0c9.6,0.9,17,8.8,17,18.5c0,9.7-7.5,17.7-17,18.4L19.9,37l0-0.1C19.4,37,19,37,18.5,37
	c-0.1,0-0.3,0-0.4,0l0,0l0,0C8,36.8,0,28.6,0,18.5C0,8.4,8,0.3,18,0l0,0c0.2,0,0.3,0,0.5,0C19,0,19.5,0,20,0L20,0z M10.2,26.7
	L10.2,26.7c-1.6,0.7-3.1,1.6-4.4,2.7c2.5,2.9,5.9,5,9.9,5.7C13,32.7,11.2,29.9,10.2,26.7z M20,25.2l0,9.6c2.9-2.2,4.9-5,6.1-8.2
	C24.2,25.9,22.2,25.4,20,25.2z M18,25.2c-2.3,0-4.4,0.3-6.3,0.9c1.2,3.5,3.3,6.4,6.3,8.8L18,25.2z M27.6,27.3l-0.1,0.2
	c-1,2.8-2.7,5.2-4.8,7.3c3.3-0.9,6.3-2.7,8.5-5.2C30,28.6,28.9,27.9,27.6,27.3z M35.2,20L29,20c-0.1,2-0.3,3.9-0.8,5.7
	c1.4,0.7,2.8,1.5,4.1,2.5C33.9,25.8,35,23,35.2,20z M9,20l-7.2,0c0.3,3,1.3,5.7,2.9,8.1c1.5-1.3,3.2-2.3,5-3C9.3,23.5,9.1,21.8,9,20
	z M27.4,20L20,20l0,3.6c2.3,0.2,4.6,0.7,6.6,1.5C27,23.5,27.3,21.8,27.4,20z M18,20l-7.4,0c0.1,1.6,0.3,3.1,0.6,4.5
	c2.1-0.7,4.4-1,6.9-1l-0.1,0V20z M4.2,9.7L4.2,9.7C2.7,12.1,1.8,15,1.7,18L9,18c0.1-1.7,0.3-3.4,0.6-5C7.7,12.2,5.9,11.1,4.2,9.7z
	 M11.2,13.5l0,0.2c-0.3,1.4-0.5,2.8-0.5,4.3l7.4,0v-3.5l-0.5,0C15.3,14.5,13.2,14.1,11.2,13.5z M26.7,13L26.7,13
	c-2.1,0.8-4.3,1.3-6.6,1.5l0,3.6l7.4,0C27.3,16.2,27.1,14.6,26.7,13z M32.6,9.5l-0.3,0.2c-1.3,1.1-2.7,1.9-4.2,2.6
	c0.5,1.8,0.7,3.7,0.8,5.7l6.3,0C35.2,14.9,34.2,11.9,32.6,9.5z M18,2.2c-3.1,2.8-5.2,6-6.4,9.7c1.9,0.6,4.1,0.9,6.4,0.9L18,2.2z
	 M20,2.2l0,10.5c2.2-0.2,4.2-0.6,6.2-1.4C25,7.9,22.9,4.8,20,2.2z M15.9,1.9l-0.2,0C11.4,2.7,7.7,5,5.2,8.3c1.5,1.3,3.1,2.3,4.9,3.1
	C11.2,7.8,13.1,4.7,15.9,1.9z M22.4,2.2L22.4,2.2c2.5,2.5,4.2,5.4,5.3,8.5c1.4-0.7,2.7-1.6,4-2.6C29.4,5.2,26.1,3,22.4,2.2z"/>
</svg>
