<?xml version="1.0" encoding="UTF-8"?>
<svg width="20px" height="20px" viewBox="0 0 20 20" version="1.1" xmlns="http://www.w3.org/2000/svg" xmlns:xlink="http://www.w3.org/1999/xlink">
  <g id="Page-1" stroke="none" stroke-width="1" fill="none" fill-rule="evenodd">
      <g id="Host-Opportunity-Card-Updated-v3" transform="translate(-401.000000, -751.000000)">
          <g id="Group-2" transform="translate(401.000000, 751.000000)">
              <rect id="Rectangle" fill-opacity="0" fill="#D8D8D8" x="0" y="0" width="20" height="20"></rect>
              <path d="M20,8.4902344 L16.2578125,4.1923828 L11.984375,4.1923828 L11.984375,1 L0,1 L0,16.4433594 L2.1357422,16.4433594 C2.1357422,16.4482422 2.1337891,16.453125 2.1337891,16.4589844 C2.1337891,17.944336 3.3427735,19.1523438 4.828125,19.1523438 C6.3134765,19.1523438 7.5224609,17.944336 7.5224609,16.4589844 C7.5224609,16.453125 7.5205078,16.4482422 7.5205078,16.4433594 L12.977539,16.4433594 C12.977539,16.4482422 12.9755859,16.453125 12.9755859,16.4589844 C12.9755859,17.944336 14.1845703,19.1523438 15.6689453,19.1523438 C17.1552734,19.1523438 18.3632812,17.944336 18.3632812,16.4589844 C18.3632812,16.453125 18.3623046,16.4482422 18.3613281,16.4433594 L20,16.4433594 L20,8.4902344 Z M14.625,5.6796875 L15.5703125,5.6796875 L18.0820313,8.5625 L14.625,8.5625 L14.625,5.6796875 Z M4.8544922,17.678711 C4.178711,17.678711 3.6289063,17.1308594 3.6289063,16.4541016 C3.6289063,15.7783204 4.178711,15.2294922 4.8544922,15.2294922 C5.5292969,15.2294922 6.0791016,15.7783203 6.0791016,16.4541016 C6.0791016,17.1308594 5.5292969,17.678711 4.8544922,17.678711 Z M10.484375,14.9560547 L7.4863281,14.9560547 L7.0625,14.9560547 C6.578125,14.2382813 5.7568359,13.765625 4.828125,13.765625 C3.8994141,13.765625 3.078125,14.2382812 2.59375,14.9560547 L1.5,14.9560547 L1.5,2.4863281 L10.484375,2.4863281 L10.484375,14.9560547 Z M15.6621094,17.678711 C14.9873047,17.678711 14.4375,17.1308594 14.4375,16.4541016 C14.4375,15.7783204 14.9873047,15.2294922 15.6621094,15.2294922 C16.3378906,15.2294922 16.8886719,15.7783203 16.8886719,16.4541016 C16.8886719,17.1308594 16.3378906,17.678711 15.6621094,17.678711 Z M18.5,14.9560547 L18.2714844,14.9560547 L17.9042969,14.9560547 C17.4189453,14.2382813 16.5996094,13.765625 15.6689453,13.765625 C14.7402344,13.765625 13.9189453,14.2382812 13.4355469,14.9560547 L13.1171875,14.9560547 L11.984375,14.9560547 L11.984375,5.6796875 L13.125,5.6796875 L13.125,10.0498047 L18.5,10.0498047 L18.5,14.9560547 Z" id="logistics" fill="#5E6670"></path>
          </g>
      </g>
  </g>
</svg>