<?xml version="1.0" encoding="UTF-8"?>
<svg width="20px" height="20px" viewBox="0 0 20 20" version="1.1" xmlns="http://www.w3.org/2000/svg" xmlns:xlink="http://www.w3.org/1999/xlink">
    <g id="Page-1" stroke="none" stroke-width="1" fill="none" fill-rule="evenodd">
        <g id="Host-Opportunity-Card-Updated-v2" transform="translate(-401.000000, -660.000000)">
            <g id="icon-energy-type-hydro" transform="translate(401.000000, 660.000000)">
                <path d="M0,0 L20,0 L20,20 L0,20 L0,0 Z" id="neutron-(Background)"></path>
                <path d="M10.0162354,0 C11.5260025,0 12.8794805,1.33830714 13.7962685,3.45411921 C16.0868511,3.18978238 17.9218093,3.69285667 18.6764889,5 C19.4313233,6.30741167 18.9491663,8.14855731 17.5754185,10.0003033 C18.94934,11.8521068 19.4311873,13.6928239 18.6764889,15 C17.9218093,16.3071434 16.0868511,16.8102174 13.7969751,16.5467587 C12.8794807,18.6616926 11.5260025,20 10.0162354,20 C8.50646818,20 7.15298969,18.6616936 6.23620176,16.5458813 C3.94615197,16.8103642 2.11077023,16.3073332 1.35598105,15 C0.601282597,13.6928239 1.08312976,11.8521065 2.45630872,10.0006981 C1.08330357,8.14855707 0.601146579,6.30741167 1.35598105,5 C2.11077023,3.69266689 3.94615197,3.18963623 6.23649263,3.45335579 C7.15298969,1.3383069 8.50646818,0 10.0162354,0 Z M10.0166802,15.5488281 L9.93505001,15.5809221 C9.18995464,15.8747943 8.45663303,16.1067106 7.75,16.2757758 C8.40412647,17.6662406 9.23266083,18.5002258 10.0162666,18.5002258 C10.7999894,18.5002258 11.6286542,17.6659914 12.2828379,16.2757321 C11.5503707,16.1006026 10.789556,15.8579547 10.0166802,15.5488281 Z M3.44855672,11.175293 L3.40325791,11.2401644 C2.56089383,12.4755981 2.2699873,13.5829788 2.65507032,14.2499621 C3.04692371,14.9286721 4.1836859,15.2292014 5.71473026,15.1006315 C5.50034361,14.3791248 5.33001477,13.5987077 5.21125674,12.7745816 C4.55691153,12.2593216 3.96635509,11.72177 3.44855672,11.175293 Z M16.5845993,11.175293 L16.4166343,11.3492506 C15.9401087,11.8358537 15.4062361,12.3141494 14.821555,12.7742352 C14.7026634,13.5984865 14.5324366,14.3785652 14.3181152,15.1001172 C15.8491266,15.2293086 16.9857326,14.9287732 17.3775535,14.2501194 C17.7693809,13.5714545 17.4613326,12.4368306 16.5845993,11.175293 Z M6.97192383,14.0044318 L7.03513571,14.2548511 C7.08940521,14.4638289 7.14723648,14.6669327 7.2082904,14.8637323 C7.4885416,14.7999104 7.775765,14.7249946 8.06898212,14.6383495 C7.88509943,14.5392356 7.70046441,14.4364753 7.51614678,14.3300594 C7.33168697,14.2235615 7.1502389,14.1149578 6.97192383,14.0044318 Z M13.0593393,14.0064475 L12.516139,14.3302229 C12.3321292,14.436461 12.1478032,14.5390558 11.9633789,14.6379942 C12.2570756,14.7253133 12.5444609,14.8002567 12.8243801,14.8636697 C12.909118,14.5894632 12.9878037,14.3034759 13.0593393,14.0064475 Z M10.0161524,6.07958984 L9.91981864,6.12240727 C9.37427396,6.36704668 8.82045168,6.64882654 8.26611328,6.96887398 C7.67891657,7.30789214 7.12919547,7.66787794 6.62040212,8.0401727 C6.55302532,8.66558146 6.51611328,9.32178193 6.51611328,9.99996281 C6.51611328,10.6781437 6.55302532,11.3343444 6.62107312,11.9612408 C7.12919544,12.3320479 7.67891657,12.6920334 8.26611328,13.0310516 C8.85339952,13.3701215 9.44010639,13.6662396 10.0170047,13.9207463 C10.5927512,13.6659212 11.1791429,13.3699392 11.7661133,13.0310516 C12.3531374,12.6921331 12.9027077,12.3322596 13.4113755,11.9600816 C13.479236,11.3337242 13.5161133,10.6778232 13.5161133,9.99996281 C13.5161133,9.32210243 13.4792359,8.66620177 13.4112496,8.03957391 C12.9027076,7.66766632 12.3531374,7.30779245 11.7661133,6.96887398 C11.1791429,6.62998644 10.5927511,6.3340044 10.0161524,6.07958984 Z M10.0161133,8.75 C10.7064693,8.75 11.2661133,9.30964404 11.2661133,10 C11.2661133,10.6903559 10.7064693,11.25 10.0161133,11.25 C9.32575738,11.25 8.76611328,10.6903559 8.76611328,10 C8.76611328,9.30964404 9.32575738,8.75 10.0161133,8.75 Z M15.0066718,9.3671875 L15.0067392,9.37962794 C15.0130224,9.58487476 15.0162102,9.79179505 15.0162102,10.0002044 C15.0162102,10.2130263 15.012886,10.4242954 15.0063359,10.6338154 C15.2284115,10.4225249 15.4369861,10.2111539 15.6318476,10.0004822 C15.4376463,9.78992403 15.2287626,9.57821737 15.0066718,9.3671875 Z M5.0260675,9.3671875 L4.96826774,9.42170889 C4.76792383,9.61416053 4.57859243,9.80707493 4.4006903,9.9994067 C4.59457329,10.2098387 4.80309102,10.4211914 5.02477252,10.6318717 C5.01953816,10.4232131 5.01622462,10.2122785 5.01622462,9.99979603 C5.01622462,9.78731354 5.01953813,9.5763789 5.0260675,9.3671875 Z M2.65507032,5.75004995 C2.26329111,6.42863142 2.57121539,7.56305969 3.44770104,8.82441115 C3.96635514,8.27824211 4.55691147,7.74069053 5.21106863,7.22593403 C5.33001472,6.40130436 5.50034361,5.62088736 5.71480393,4.8990577 C4.1836859,4.77081073 3.04692371,5.07133996 2.65507032,5.75004995 Z M14.6417778,4.87809174 L14.3968982,4.89290284 L14.3181152,4.89985443 C14.5324366,5.62140645 14.7026634,6.40148503 14.8213669,7.22523284 C15.4757122,7.74049282 16.0662686,8.2780444 16.5840669,8.82452154 C17.4613326,7.56314099 17.7693809,6.42851722 17.3775535,5.7498523 C17.013864,5.11992359 16.0084961,4.81576691 14.6417778,4.87809174 Z M7.20881733,5.13671244 L7.17063564,5.25997978 C7.09981971,5.49652201 7.03363788,5.74180916 6.97265625,5.99512351 C7.15028229,5.88506415 7.33173037,5.77646039 7.51619017,5.66996247 C7.7005078,5.56354663 7.88514279,5.46078629 8.06987596,5.36169463 C7.77580836,5.27502731 7.488585,5.20011145 7.20881733,5.13671244 Z M12.8243736,5.13687471 L12.7892285,5.1445128 C12.5204742,5.20618964 12.2449245,5.27845634 11.9638672,5.36149985 C12.1479816,5.46107083 12.3323076,5.56366558 12.5163174,5.6699037 C12.7004601,5.77621852 12.8816014,5.88463196 13.0596206,5.99496126 C12.9879821,5.69665077 12.9092964,5.41066343 12.8243736,5.13687471 Z M10.016278,1.5 C9.23267227,1.5 8.40413797,2.33398497 7.75,3.72387075 C8.48226398,3.89964454 9.24317539,4.14233068 10.016149,4.45151162 C10.7895678,4.1422711 11.550382,3.89962314 12.2825446,3.72444987 C11.6286656,2.33423424 10.8000008,1.5 10.016278,1.5 Z" id="neutron" fill="#5E6670"></path>
            </g>
        </g>
    </g>
</svg>