<svg width="20" height="8" viewBox="0 0 20 8" fill="none" xmlns="http://www.w3.org/2000/svg">
<path fill-rule="evenodd" clip-rule="evenodd" d="M9.03033 0.469666L12.0303 3.46967L12.5607 4L12.0303 4.53033L9.03033 7.53033L7.96967 6.46967L9.68934 4.75H6.99121C6.86302 6.56631 5.34894 8 3.5 8C1.567 8 0 6.43299 0 4.5C0 2.567 1.567 0.999996 3.5 0.999996C4.9926 0.999996 6.26697 1.93431 6.77019 3.25H9.68934L7.96967 1.53033L9.03033 0.469666ZM3.5 6.5C4.60457 6.5 5.5 5.60457 5.5 4.5C5.5 3.39543 4.60457 2.5 3.5 2.5C2.39543 2.5 1.5 3.39543 1.5 4.5C1.5 5.60457 2.39543 6.5 3.5 6.5ZM18.5 4.5C18.5 5.60457 17.6046 6.5 16.5 6.5C15.3954 6.5 14.5 5.60457 14.5 4.5C14.5 3.39543 15.3954 2.5 16.5 2.5C17.6046 2.5 18.5 3.39543 18.5 4.5ZM20 4.5C20 6.43299 18.433 8 16.5 8C14.567 8 13 6.43299 13 4.5C13 2.567 14.567 0.999996 16.5 0.999996C18.433 0.999996 20 2.567 20 4.5Z" fill="#5E6670"/>
</svg>
