<svg width="20" height="20" viewBox="0 0 20 20" fill="none" xmlns="http://www.w3.org/2000/svg">
<path fill-rule="evenodd" clip-rule="evenodd" d="M20 4.22461H18.5V1.5H1.5V4.22461H0V0H20V4.22461ZM20 20H0V15.7754H1.5V18.5H18.5V15.7754H20V20ZM3.01416 12.5259H6.95654V13.8203H1V12.875L4.86719 7.30518H1.00537V6H6.87061V6.92383L3.01416 12.5259ZM10.7904 13.8203H9.1791V6H10.7904V13.8203ZM15.0003 13.8203V11.0649H16.4129C17.3403 11.0649 18.0654 10.8447 18.5882 10.4043C19.1146 9.96029 19.3777 9.35514 19.3777 8.58887C19.3777 8.08398 19.2578 7.6346 19.0179 7.24072C18.778 6.84326 18.4342 6.53711 17.9866 6.32227C17.5426 6.10742 17.027 6 16.4397 6H13.389V13.8203H15.0003ZM16.4397 9.75977H15.0003V7.30518H16.4773C16.8748 7.31234 17.1863 7.43408 17.4119 7.67041C17.6375 7.90674 17.7503 8.21647 17.7503 8.59961C17.7503 8.972 17.6375 9.25846 17.4119 9.45898C17.1899 9.6595 16.8659 9.75977 16.4397 9.75977Z" fill="#5E6670"/>
</svg>
