<svg width="20" height="20" viewBox="0 0 20 20" fill="none" xmlns="http://www.w3.org/2000/svg">
<circle cx="15" cy="15" r="4.25" stroke="#5E6670" stroke-width="1.5"/>
<path fill-rule="evenodd" clip-rule="evenodd" d="M13.003 11.9955C12.0688 11.64 11.0566 11.4453 10 11.4453C5.30859 11.4453 1.49219 15.2832 1.49219 20H0C0 15.5303 2.91797 11.7363 6.93652 10.4321C5.38672 9.41992 4.35742 7.66699 4.35742 5.67383C4.35742 2.54541 6.8877 0 10 0C13.1123 0 15.6426 2.54541 15.6426 5.67383C15.6426 7.66699 14.6133 9.41992 13.0635 10.4321C13.4334 10.5522 13.7939 10.6933 14.1437 10.8541L13.003 11.9955ZM5.84863 5.67383C5.84863 7.9751 7.71094 9.84766 10 9.84766C12.2891 9.84766 14.1514 7.9751 14.1514 5.67383C14.1514 3.37256 12.2891 1.5 10 1.5C7.71094 1.5 5.84863 3.37256 5.84863 5.67383Z" fill="#5E6670"/>
<path fill-rule="evenodd" clip-rule="evenodd" d="M14.4445 17.2222L14.4445 12.7778L15.5556 12.7778L15.5556 17.2222L14.4445 17.2222Z" fill="#5E6670"/>
<path fill-rule="evenodd" clip-rule="evenodd" d="M17.2222 15.5555H12.7778V14.4444H17.2222V15.5555Z" fill="#5E6670"/>
</svg>
