<?xml version="1.0" encoding="UTF-8"?>
<svg width="16px" height="16px" viewBox="0 0 16 16" version="1.1" xmlns="http://www.w3.org/2000/svg" xmlns:xlink="http://www.w3.org/1999/xlink">
    <title>exchange</title>
    <g id="Page-1" stroke="none" stroke-width="1" fill="none" fill-rule="evenodd">
        <g id="New-Request" transform="translate(-511.000000, -575.000000)">
            <g id="exchange" transform="translate(511.000000, 575.000000)">
                <path d="M0,0 L16,0 L16,16 L0,16 L0,0 Z" id="exchange-(Background)"></path>
                <path d="M8,0 C12.4179688,0 16,3.58125 16,7.99921875 C16,12.41875 12.4179688,16 8,16 C3.58125,16 0,12.41875 0,7.99921875 C0,3.58125 3.58125,0 8,0 Z M7.99995136,1.19921875 C4.24995126,1.19921875 1.19995117,4.25000004 1.19995117,7.99921885 C1.19995117,11.7484376 4.24995126,14.8000002 7.99995136,14.8000002 C11.7491702,14.8000002 14.7999516,11.7484376 14.7999516,7.99921885 C14.7999516,4.25000004 11.7491702,1.19921875 7.99995136,1.19921875 Z M6.5875489,7.80664062 L6.58520515,10.0746096 L11.4047365,10.0746096 L11.4047365,11.2746097 L6.58364265,11.2746097 L6.5812989,13.6152349 L3.75708008,10.6667971 L6.5875489,7.80664062 Z M9.41811517,2.38476562 L12.2423339,5.33007798 L9.41186517,8.19257784 L9.41420892,5.92382795 L4.59545898,5.92382795 L4.59545898,4.72382801 L9.41577142,4.72382801 L9.41811517,2.38476562 Z" fill="#5E6670"></path>
            </g>
        </g>
    </g>
</svg>