<?xml version="1.0" encoding="UTF-8"?>
<svg width="16px" height="16px" viewBox="0 0 16 16" version="1.1" xmlns="http://www.w3.org/2000/svg" xmlns:xlink="http://www.w3.org/1999/xlink">
    <title>list</title>
    <g id="Page-1" stroke="none" stroke-width="1" fill="none" fill-rule="evenodd">
        <g id="New-Request" transform="translate(-511.000000, -535.000000)">
            <g id="list" transform="translate(511.000000, 535.000000)">
                <path d="M0,0 L16,0 L16,16 L0,16 L0,0 Z" id="list-(Background)"></path>
                <path d="M16,0 L16,16 L0,16 L0,0 L16,0 Z M14.7999516,1.20019531 L1.19995117,1.20019531 L1.19995117,14.8001957 L14.7999516,14.8001957 L14.7999516,1.20019531 Z M5.78676748,9.59960938 L5.78676748,11.1996088 L4.18676758,11.1996088 L4.18676758,9.59960938 L5.78676748,9.59960938 Z M11.8397951,9.83886719 L11.8397951,11.038867 L7.03979492,11.038867 L7.03979492,9.83886719 L11.8397951,9.83886719 Z M5.78676748,7.20019531 L5.78676748,8.80019569 L4.18676758,8.80019569 L4.18676758,7.20019531 L5.78676748,7.20019531 Z M11.8397951,7.43847656 L11.8397951,8.63847685 L7.03979492,8.63847685 L7.03979492,7.43847656 L11.8397951,7.43847656 Z M5.78676748,4.79980469 L5.78676748,6.39980459 L4.18676758,6.39980459 L4.18676758,4.79980469 L5.78676748,4.79980469 Z M11.8397951,5.0390625 L11.8397951,6.23906231 L7.03979492,6.23906231 L7.03979492,5.0390625 L11.8397951,5.0390625 Z" fill="#5E6670"></path>
            </g>
        </g>
    </g>
</svg>