<?xml version="1.0" encoding="UTF-8"?>
<svg width="16px" height="16px" viewBox="0 0 16 16" version="1.1" xmlns="http://www.w3.org/2000/svg" xmlns:xlink="http://www.w3.org/1999/xlink">
    <g id="Page-1" stroke="none" stroke-width="1" fill="none" fill-rule="evenodd">
        <g id="New-Request" transform="translate(-511.000000, -695.000000)">
            <g id="close-job" transform="translate(511.000000, 695.000000)">
                <path d="M0,0 L16,0 L16,16 L0,16 L0,0 Z" id="close-job-(Background)"></path>
                <path d="M12.5091618,0 L12.5091618,0.883984375 L15.9882717,0.883984375 L15.9882717,9.32109375 L14.7881741,9.32109375 L14.7881741,2.07851563 L12.5091618,2.07851563 L12.5091618,4.50546875 L3.47911063,4.50546875 L3.47911063,2.07851563 L1.1993159,2.07851563 L1.1993159,14.8054688 L9.24505212,14.8054688 L9.24505212,16 L0,16 L0,0.883984375 L3.47911063,0.883984375 L3.47911063,0 L12.5091618,0 Z M15.1509432,10.4550781 L16.0000029,11.3035156 L14.0806283,13.2207029 L16.0000029,15.1394528 L15.1509432,15.9878902 L13.2315688,14.0691404 L11.3121941,15.9878902 L10.4631348,15.1394528 L12.3825093,13.2207029 L10.4631348,11.3035156 L11.3121941,10.4550781 L13.2315688,12.3722655 L15.1509432,10.4550781 Z M11.3091545,1.19433594 L4.67773438,1.19433594 L4.67773438,3.31191421 L11.3091545,3.31191421 L11.3091545,1.19433594 Z" fill="#5E6670"></path>
            </g>
        </g>
    </g>
</svg>