<?xml version="1.0" encoding="UTF-8"?>
<svg width="20px" height="20px" viewBox="0 0 20 20" version="1.1" xmlns="http://www.w3.org/2000/svg" xmlns:xlink="http://www.w3.org/1999/xlink">
    <g id="Page-1" stroke="none" stroke-width="1" fill="none" fill-rule="evenodd">
        <g id="Host-Opportunity-Card-Updated-v2" transform="translate(-401.000000, -692.000000)">
            <g id="icon-farm-in" transform="translate(401.000000, 692.000000)">
                <path d="M0,0 L20,0 L20,20 L0,20 L0,0 Z" id="feedback-(Background)"></path>
                <path d="M4,0 L4,1.255 L4.80425656,1.05555855 C5.36165464,1.0545931 5.87334344,1.05378856 6.33990348,1.05314704 L6.87815088,1.05245561 L9.55656732,1.05234042 L9.55656732,1.05234042 L9.73556443,1.05301207 C9.89392145,1.0537657 9.99046967,1.05476566 10.0262122,1.05601561 C12.4544186,1.14093242 14.3025876,2.83890906 15.566784,5.99877152 L16.03125,6 L19,9.0625 L19,18.5 L20,18.5 L20,20 L4,20 L4,18.5 L5,18.5 L4.999,8.344 L4,7.6 L4,9 L0,9 L0,7.5 L2.5,7.5 L2.5,1.5 L0,1.5 L0,0 L4,0 Z M11.2937822,9.85522461 C10.2303737,10.4802717 8.62826478,10.6012574 7.71158409,10.1159558 C7.34944655,9.92423595 6.94639613,9.68378286 6.50068693,9.39370246 L6.5,18.5 L17.5,18.5 L17.5,9.67020679 L15.3962278,7.5 L12.4918897,7.49997746 C12.6529825,8.46943296 12.222515,9.30933685 11.2937822,9.85522461 Z M16,15 L16,16.5 L8.0625,16.5 L8.0625,15 L16,15 Z M16,12 L16,13.5 L8.0625,13.5 L8.0625,12 L16,12 Z M9.5922714,2.55227864 L6.95698779,2.55238889 L6.95698779,2.55238889 L6.42240783,2.55305253 C5.95924582,2.55367022 5.45197026,2.55444985 4.9012053,2.5553937 L4,2.775 L4,5.758 L6.12704372,7.31416321 C7.04293132,7.97661448 7.80693585,8.46919599 8.41341591,8.79027367 C8.84110364,9.01669659 9.89570838,8.93705696 10.5336924,8.56206465 C11.1673471,8.18961692 11.2460179,7.694143 10.5060549,6.75188613 C10.2945742,6.48259008 9.63581455,6.30144995 8.51025295,6.3235023 L8.15495491,6.33046341 L6.90665841,4.86461323 L8.04867315,3.89208984 L8.84122467,4.82276726 C10.2000055,4.84306658 11.1532633,5.14737117 11.6857643,5.82544923 C11.7312468,5.8833659 11.7748181,5.94116391 11.8164932,5.99881658 L13.9380334,5.99882259 C12.9095031,3.71973114 11.589123,2.61158914 9.97378778,2.55509925 C9.95355432,2.55439166 9.90317083,2.55378073 9.82295688,2.55326761 L9.5922714,2.55227864 Z" id="Feedback" fill="#5E6670"></path>
            </g>
        </g>
    </g>
</svg>