<svg width="20" height="20" viewBox="0 0 20 20" fill="none" xmlns="http://www.w3.org/2000/svg">
<path fill-rule="evenodd" clip-rule="evenodd" d="M11.373 0.545813L10.8428 0L10.3047 0.538072L7.64065 3.20213L7.11032 3.73246L7.64065 4.26279L8.18078 4.80292L3.88642 6.59223L3.54643 6.7339L3.45067 7.08956L0.342605 18.6338L0 19.9064L1.26904 19.551L12.3693 16.443L12.674 16.3576L12.8255 16.0799L15.0096 12.0757L15.1888 12.255L15.7408 12.8069L16.2702 12.2334L18.9343 9.34729L19.416 8.82541L18.9212 8.31599L11.373 0.545813ZM4.80334 7.83518L9.30751 5.95845L13.915 10.9499L11.6602 15.0838L3.62168 17.3346L7.11856 13.8377C7.30835 13.9069 7.51325 13.9447 7.72698 13.9447C8.70786 13.9447 9.50302 13.1495 9.50302 12.1686C9.50302 11.1877 8.70786 10.3926 7.72698 10.3926C6.7461 10.3926 5.95094 11.1877 5.95094 12.1686C5.95094 12.3824 5.98869 12.5873 6.0579 12.7771L2.52045 16.3145L4.80334 7.83518ZM17.3504 8.85174L15.6975 10.6423L15.3721 10.3169L10.0541 4.55578L10.0439 4.54476L10.0333 4.53416L9.23164 3.73246L10.8273 2.1368L17.3504 8.85174ZM8.00302 12.1686C8.00302 12.3211 7.87943 12.4447 7.72698 12.4447C7.57453 12.4447 7.45094 12.3211 7.45094 12.1686C7.45094 12.0162 7.57453 11.8926 7.72698 11.8926C7.87943 11.8926 8.00302 12.0162 8.00302 12.1686Z" fill="#5E6670"/>
</svg>
