<?xml version="1.0" encoding="UTF-8"?>
<svg width="51px" height="60px" viewBox="0 0 51 60" version="1.1" xmlns="http://www.w3.org/2000/svg" xmlns:xlink="http://www.w3.org/1999/xlink">
    <title>union</title>
    <g id="Page-1" stroke="none" stroke-width="1" fill="none" fill-rule="evenodd">
        <g id="GAIA-Light-CP-Dashboard-1-1-access-denied" transform="translate(-935.000000, -311.000000)" fill="#5E6670">
            <g id="Group-2" transform="translate(817.000000, 291.000000)">
                <g id="union" transform="translate(118.000000, 20.000000)">
                    <path d="M23.3380524,1.05961915e-15 L23.3380524,12.725601 L26.5194527,12.725601 L26.5194527,1.05961915e-15 L23.3380524,1.05961915e-15 Z M26.0277354,18.6000566 L25.4512021,18.3758315 L24.8746687,18.6000566 L5.78626717,26.0233133 L4.77210039,26.4177115 L4.77210039,27.5058458 L4.77210039,49.7756158 L4.77210039,50.8095709 L5.71675357,51.2291976 L24.8051551,59.7130377 L25.4512021,60 L26.097249,59.7130377 L45.1857461,51.2291976 L46.1303038,50.8095709 L46.1303038,49.7756158 L46.1303038,27.5058458 L46.1303038,26.4177115 L45.1160734,26.0233133 L26.0277354,18.6000566 Z M7.95350065,48.7419789 L7.95350065,29.8312267 L23.860502,36.0173323 L23.860502,55.8116866 L7.95350065,48.7419789 Z M27.0419022,55.8116866 L27.0419022,36.0173323 L42.9489035,29.8312267 L42.9489035,48.7419789 L27.0419022,55.8116866 Z M25.4512021,33.2224721 L40.150862,27.5058458 L25.4512021,21.7893468 L10.751574,27.5058458 L25.4512021,33.2224721 Z M50.9024042,8.1026447 L41.9041317,17.1009808 L39.6545636,14.8514127 L48.6528361,5.85304476 L50.9024042,8.1026447 Z M0,8.40090097 L8.99836794,17.3992371 L11.2479361,15.149669 L2.24959039,6.15130103 L0,8.40090097 Z" id="Shape"></path>
                </g>
            </g>
        </g>
    </g>
</svg>