<svg xmlns="http://www.w3.org/2000/svg" id="basin" viewBox="0 0 20 20">
    <path d="M1.5 4.85v2.489c1.54.113 2.393 1.112 3.457 3.312.02.043.397.831.51 1.06 1.24 2.52 2.354 3.547 4.533 3.547 2.17 0 3.281-1.013 4.596-3.56.103-.2.45-.884.48-.946 1.095-2.144 1.965-3.176 3.424-3.384V4.893c-.466.112-.884.372-1.421.836-.141.122-.793.714-.986.881C14.42 8.055 12.73 8.758 10 8.758c-2.747 0-4.468-.718-6.08-2.156-.221-.197-.93-.875-1.077-1.005-.51-.455-.893-.681-1.343-.748zm0-1.51c.873.069 1.56.44 2.342 1.138.171.153.88.83 1.077 1.005C6.267 6.686 7.639 7.258 10 7.258c2.348 0 3.698-.562 5.112-1.783.174-.15.826-.743.986-.881.821-.71 1.53-1.107 2.402-1.227V1.5h-17v1.84zm0 5.512V18.5h17V8.913c-.736.231-1.292.963-2.087 2.521-.029.056-.377.745-.484.953-1.545 2.992-3.058 4.37-5.929 4.37-2.887 0-4.413-1.406-5.879-4.383-.117-.239-.497-1.034-.514-1.07C2.81 9.66 2.275 8.984 1.5 8.852zM0 0h20v20H0V0z"/>
  </svg>