<svg xmlns="http://www.w3.org/2000/svg" id="completion" viewBox="0 0 20 20">
    <path d="M5.742 13.595c.62.157 1.37.279 2.311.372l1.309-4.173 1.43.45-1.204 3.842a77.84 77.84 0 0 0 2.396.1l1.378-4.392 1.43.45-1.247 3.978c.746.013 1.55.023 2.419.03l1.398-4.458 1.43.45-1.258 4.016c.775.003 1.596.004 2.466.004v1.504c-1.046 0-2.024-.001-2.938-.005L15.734 20l-1.431-.451 1.19-3.796c-.868-.008-1.672-.018-2.417-.033L11.734 20l-1.431-.451 1.213-3.868a70.71 70.71 0 0 1-2.393-.111L7.733 20l-1.43-.451 1.288-4.11c-.916-.1-1.666-.228-2.304-.393L3.734 20l-1.431-.451 1.57-5.008a6.707 6.707 0 0 1-1.283-.81C.253 11.882 0 9.971 0 0h1.502c0 9.316.242 11.145 2.018 12.55.25.197.513.372.812.528l1.03-3.284 1.43.45-1.05 3.351z"/>
  </svg>