<svg xmlns="http://www.w3.org/2000/svg" id="core-sample" viewBox="0 0 20 20">
    <path d="m1.5 10c0 0.66982 1.2453 1.5 3 1.5 1.7547 0 3-0.83018 3-1.5v-0.76389c-0.79613 0.47504-1.8475 0.76389-3 0.76389s-2.2039-0.28885-3-0.76389v0.76389 3e-7zm0 2.2361v4.7639c0 0.66982 1.2453 1.5 3 1.5s3-0.83018 3-1.5v-4.7639c-0.79613 0.47504-1.8475 0.76389-3 0.76389s-2.2039-0.28885-3-0.76389zm0-5.2361c0 0.66982 1.2453 1.5 3 1.5s3-0.83018 3-1.5v-1.7639c-0.79613 0.47504-1.8475 0.76389-3 0.76389s-2.2039-0.28885-3-0.76389v1.7639zm-1.5-4c0-1.6569 2.0147-3 4.5-3s4.5 1.3431 4.5 3v14c0 1.6569-2.0147 3-4.5 3s-4.5-1.3431-4.5-3v-14zm4.5 1.5c1.7547 0 3-0.83018 3-1.5s-1.2453-1.5-3-1.5-3 0.83018-3 1.5 1.2453 1.5 3 1.5zm14 7.7361c-0.79613 0.47504-1.8475 0.76389-3 0.76389s-2.2039-0.28885-3-0.76389v0.76389c0 0.66982 1.2453 1.5 3 1.5s3-0.83018 3-1.5v-0.76389zm-6-2.2361c0 0.66982 1.2453 1.5 3 1.5s3-0.83018 3-1.5v-4.7639c-0.79613 0.47504-1.8475 0.76389-3 0.76389s-2.2039-0.28885-3-0.76389v4.7639zm6 5.2361c-0.79613 0.47504-1.8475 0.76389-3 0.76389s-2.2039-0.28885-3-0.76389v1.7639c0 0.66982 1.2453 1.5 3 1.5s3-0.83018 3-1.5v-1.7639zm-7.5-12.236c0-1.6569 2.0147-3 4.5-3s4.5 1.3431 4.5 3v14c0 1.6569-2.0147 3-4.5 3s-4.5-1.3431-4.5-3v-14zm4.5 1.5c1.7547 0 3-0.83018 3-1.5s-1.2453-1.5-3-1.5-3 0.83018-3 1.5 1.2453 1.5 3 1.5z"/>
  </svg>