<svg xmlns="http://www.w3.org/2000/svg" id="formation" viewBox="0 0 20 20">
    <path d="M15,7.1977999 L11.5,7.49348462 L11.5,12.2428435 L15,12.5385282 L15,7.1977999 Z M16.5,7.07107788 L16.5,12.6652502 L18.5,12.8342129 L18.5,6.90211519 L16.5,7.07107788 Z M10,7.62020664 L6.5,7.91589136 L6.5,11.8204368 L10,12.1161215 L10,7.62020664 Z M5,8.04261338 L1.5,8.3382981 L1.5,11.39803 L5,11.6937147 L5,8.04261338 L5,8.04261338 Z M18.5,14.3395562 L1.5,12.9033733 L1.5,18.5 L18.5,18.5 L18.5,14.3395562 L18.5,14.3395562 Z M18.5,5.39677188 L18.5,1.5 L1.5,1.5 L1.5,6.83295479 L18.5,5.39677188 L18.5,5.39677188 Z M0,0 L20,0 L20,20 L0,20 L0,0 Z M4,3 L6,3 L6,5 L4,5 L4,3 Z M9,3 L11,3 L11,5 L9,5 L9,3 Z M14,3 L16,3 L16,5 L14,5 L14,3 Z M3,15.5 L7,15.5 L7,17 L3,17 L3,15.5 Z M8,15.5 L12,15.5 L12,17 L8,17 L8,15.5 Z M13,15.5 L17,15.5 L17,17 L13,17 L13,15.5 Z"/>
  </svg>