<svg xmlns="http://www.w3.org/2000/svg" id="greenfield" viewBox="0 0 20 20">
    <path d="M9.25 13.583c-1.661.587-3.079.54-4.253-.137-1.435-.828-2.234-2.444-2.397-4.848 1.695-.831 3.167-1.082 4.415-.753A4.05 4.05 0 0 1 7 7.5C7 5.843 8 4.343 10 3c2 1.343 3 2.843 3 4.5 0 .115-.005.23-.015.343 1.247-.326 2.717-.075 4.41.755-.164 2.404-.963 4.02-2.398 4.848-1.172.677-2.588.723-4.247.139v3.408h-1.5v-3.41zm-.032-4.245c.21.263.47.526.782.79.284-.241.526-.482.727-.722.062-.087.127-.17.194-.25.394-.55.579-1.1.579-1.656 0-.883-.467-1.753-1.5-2.628-1.033.875-1.5 1.745-1.5 2.628 0 .578.2 1.15.628 1.722l.09.116zm2.856.778a5.932 5.932 0 0 1-.132.17c-.334.464-.577 1.082-.72 1.876 1.274.457 2.26.426 3.025-.015.764-.441 1.285-1.28 1.526-2.613-1.275-.457-2.261-.426-3.026.015a2.525 2.525 0 0 0-.673.567zm-6.327 2.031c.765.441 1.751.472 3.026.015-.241-1.332-.761-2.172-1.526-2.613-.764-.441-1.751-.472-3.026-.015.242 1.333.762 2.172 1.526 2.613zM20 16v4h-4v-1.5h2.5V16H20zM0 20v-4h1.5v2.5H4V20H0zM20 0v4h-1.5V1.5H16V0h4zM0 0h4v1.5H1.5V4H0V0zm9 0v1.5H6V0h3zM1.5 9H0V6h1.5v3zm0 5H0v-3h1.5v3zM20 9h-1.5V6H20v3zm0 5h-1.5v-3H20v3zM14 0v1.5h-3V0h3zM9 18.5V20H6v-1.5h3zm5 0V20h-3v-1.5h3z"/>
  </svg>