<svg xmlns="http://www.w3.org/2000/svg" id="lease-block" viewBox="0 0 20 20">
    <path d="m20 0v20h-2.75v-1.5h1.25v-17h-5.75v2.299h-1.5v-2.299h-9.75v8.299l-1.5 1e-3v-9.8h20zm-4 5v15h-16v-8.9914l5-0.0086477v-5.999l11-1e-3zm-1.5 1.5001-8 7.2727e-4v5.9965l-5 0.0086477v5.9939h13v-12zm-3.5215 1.2626v1.0596c0.57617 0.081381 1.027 0.32145 1.3525 0.72021 0.32552 0.39877 0.48828 0.91552 0.48828 1.5503h-1.4111c0-0.39063-0.080566-0.68278-0.2417-0.87646s-0.37679-0.29053-0.64697-0.29053c-0.26693 0-0.47363 0.075683-0.62012 0.22705-0.14649 0.15137-0.21973 0.36051-0.21973 0.62744 0 0.2474 0.071614 0.44596 0.21484 0.5957 0.12277 0.12835 0.33582 0.25909 0.63915 0.39222l0.15919 0.066765c0.389 0.15625 0.70882 0.30355 0.95947 0.44189 0.25065 0.13835 0.46224 0.2946 0.63477 0.46875s0.30436 0.37272 0.39551 0.5957 0.13672 0.48258 0.13672 0.77881c0 0.55339-0.17252 1.0026-0.51758 1.3477s-0.82031 0.5485-1.4258 0.61035v0.97168h-0.77637v-0.9668c-0.66732-0.071615-1.1841-0.30843-1.5503-0.71045-0.36621-0.40202-0.54932-0.93668-0.54932-1.604h1.4111c0 0.38737 0.091959 0.68441 0.27588 0.89111 0.18392 0.20671 0.4484 0.31006 0.79346 0.31006 0.28646 0 0.51269-0.075683 0.67871-0.22705 0.16602-0.15137 0.24902-0.35563 0.24902-0.61279 0-0.26693-0.074055-0.47933-0.22217-0.63721-0.12343-0.13157-0.31863-0.25465-0.5856-0.36926l-0.1688-0.067749c-0.35482-0.13346-0.66081-0.26611-0.91797-0.39795-0.25716-0.13184-0.4777-0.2832-0.66162-0.4541s-0.32715-0.37191-0.42969-0.60303c-0.10254-0.23112-0.15381-0.50618-0.15381-0.8252 0-0.55013 0.17578-1.001 0.52734-1.3525s0.81868-0.55664 1.4014-0.61523v-1.0449h0.78125z"/>
  </svg>