<svg xmlns="http://www.w3.org/2000/svg" id="onshore" viewBox="0 0 20 20">
    <path d="M20 18.428v1.556c-.1.01-.203.016-.314.016-1.034 0-1.53-.447-2.283-1.581-.493-.74-.69-.919-1.045-.919-.356 0-.557.179-1.054.916C14.538 19.553 14.038 20 13 20v-1.5c.36 0 .56-.18 1.059-.919.764-1.135 1.264-1.581 2.299-1.581 1.038 0 1.537.449 2.291 1.585.49.738.687.915 1.037.915.116 0 .215-.02.314-.072zm0-4v1.556c-.1.01-.203.016-.314.016-1.034 0-1.53-.447-2.283-1.581-.493-.74-.69-.919-1.045-.919-.356 0-.557.179-1.054.916C14.538 15.553 14.038 16 13 16v-1.5c.36 0 .56-.18 1.059-.919.764-1.135 1.264-1.581 2.299-1.581 1.038 0 1.537.449 2.291 1.585.49.738.687.915 1.037.915.116 0 .215-.02.314-.072zm0-4v1.556c-.1.01-.203.016-.314.016-1.034 0-1.53-.447-2.283-1.581-.493-.74-.69-.919-1.045-.919-.356 0-.557.179-1.054.916C14.538 11.553 14.038 12 13 12v-1.5c.36 0 .56-.18 1.059-.919C14.823 8.446 15.323 8 16.358 8c1.038 0 1.537.449 2.291 1.585.49.738.687.915 1.037.915.116 0 .215-.02.314-.072zM0 9.796v-1.5h11.5V20H10V9.796H0zm4.185-2.05l-1.37-.612L6 0l3.185 7.134-1.37.612L6 3.68 4.185 7.746z"/>
  </svg>