<svg xmlns="http://www.w3.org/2000/svg" id="polygonset" viewBox="0 0 20 20">
    <path d="M1,10 L10,15 L0,20 L1,10 Z M20,11 L20,20 L12,20 L12,11 L20,11 Z M18.5,12.5 L13.5,12.5 L13.5,18.5 L18.5,18.5 L18.5,12.5 Z M2.26557764,12.419037 L1.76335415,17.4412719 L6.78558905,14.9301545 L2.26557764,12.419037 Z M17,0 L20,6 L15,9 L10,6 L12,0 L17,0 Z M10,0 L5,9 L1,9 L0,0 L10,0 Z M7.45072831,1.5 L1.67589752,1.5 L2.34256419,7.5 L4.11739498,7.5 L7.45072831,1.5 Z M16.072949,1.5 L13.0811388,1.5 L11.8035283,5.33283144 L15,7.25071443 L18.0371586,5.42841925 L16.072949,1.5 Z"/>
  </svg>