<svg xmlns="http://www.w3.org/2000/svg" id="production-history" viewBox="0 0 20 20">
    <path d="m14 8c3.3137 0 6 2.6863 6 6s-2.6863 6-6 6-6-2.6863-6-6 2.6863-6 6-6zm-6.999-8 0.48762 0.50391c0.17231 0.17711 2.8344 2.9366 4.7008 6.4741-0.50714 0.13034-0.99273 0.31418-1.4505 0.54511-0.35008-0.65233-0.75046-1.3153-1.1952-1.9842-0.66803-1.0047-1.3918-1.955-2.1232-2.8222-0.1491-0.1768-0.28862-0.33867-0.41716-0.48497-0.12962 0.14772-0.27048 0.31138-0.42153 0.49075-0.73187 0.86908-1.456 1.8208-2.1244 2.8263-1.8307 2.7541-2.9099 5.4041-2.9099 7.6652 0 2.9192 2.4421 5.2861 5.4535 5.2861 0.41677 0 0.82262-0.045365 1.2126-0.13128 0.3423 0.4528 0.73706 0.86458 1.175 1.2259-0.74469 0.26229-1.5489 0.40534-2.3876 0.40534-3.8657 0-7.001-3.0381-7.001-6.7861 0-5.8385 6.0329-12.207 6.4943-12.686l0.019079-0.019752 0.48762-0.50781zm6.999 9.5c-2.4853 0-4.5 2.0147-4.5 4.5s2.0147 4.5 4.5 4.5 4.5-2.0147 4.5-4.5-2.0147-4.5-4.5-4.5zm0.75 1.3688v2.381l1.5369 1.646e-4v1.5h-2.2869v-0.0091646l-0.75 6.807e-4v-3.8727h1.5z"/>
  </svg>