<?xml version="1.0" encoding="UTF-8"?>
<svg width="20px" height="13px" viewBox="0 0 20 13" version="1.1" xmlns="http://www.w3.org/2000/svg" xmlns:xlink="http://www.w3.org/1999/xlink">
    <title>railroad</title>
    <g id="Page-1" stroke="none" stroke-width="1" fill="none" fill-rule="evenodd">
        <g id="railroad" fill="#000000">
            <path d="M1.59663866,10.4621849 L1.59663866,12.1008403 L0,12.1008403 L0,10.4621849 L1.59663866,10.4621849 Z M6.30252101,10.4621849 L6.30252101,12.1008403 L4.28571429,12.1008403 L4.28571429,10.4621849 L6.30252101,10.4621849 Z M11.0084034,10.4621849 L11.0084034,12.1008403 L8.99159664,12.1008403 L8.99159664,10.4621849 L11.0084034,10.4621849 Z M15.7142857,10.4621849 L15.7142857,12.1008403 L13.697479,12.1008403 L13.697479,10.4621849 L15.7142857,10.4621849 Z M20,10.4621849 L20,12.1008403 L18.4033613,12.1008403 L18.4033613,10.4621849 L20,10.4621849 Z M20,8.44537815 L20,9.70588235 L0,9.70588235 L0,8.44537815 L20,8.44537815 Z M1.59663866,4.41176471 L1.59663866,7.68907563 L0,7.68907563 L0,4.41176471 L1.59663866,4.41176471 Z M6.30252101,4.41176471 L6.30252101,7.68907563 L4.28571429,7.68907563 L4.28571429,4.41176471 L6.30252101,4.41176471 Z M11.0084034,4.41176471 L11.0084034,7.68907563 L8.99159664,7.68907563 L8.99159664,4.41176471 L11.0084034,4.41176471 Z M15.7142857,4.41176471 L15.7142857,7.68907563 L13.697479,7.68907563 L13.697479,4.41176471 L15.7142857,4.41176471 Z M20,4.41176471 L20,7.68907563 L18.4033613,7.68907563 L18.4033613,4.41176471 L20,4.41176471 Z M20,2.39495798 L20,3.65546218 L0,3.65546218 L0,2.39495798 L20,2.39495798 Z M1.59663866,0 L1.59663866,1.63865546 L0,1.63865546 L0,0 L1.59663866,0 Z M6.30252101,0 L6.30252101,1.63865546 L4.28571429,1.63865546 L4.28571429,0 L6.30252101,0 Z M11.0084034,0 L11.0084034,1.63865546 L8.99159664,1.63865546 L8.99159664,0 L11.0084034,0 Z M15.7142857,0 L15.7142857,1.63865546 L13.697479,1.63865546 L13.697479,0 L15.7142857,0 Z M20,0 L20,1.63865546 L18.4033613,1.63865546 L18.4033613,0 L20,0 Z" id="Shape"></path>
        </g>
    </g>
</svg>