<svg xmlns="http://www.w3.org/2000/svg" class="icon-layers-survey-3d" width="20px" height="20px" viewBox="0 0 20 20">
  <path fill="#A4CCF9" d="M.8.8h6.5v6.5H.8z"></path>
  <path fill="#FFF" d="M8 8H0V0h8v8zM1.5 6.5h5v-5h-5v5z"></path>
  <path fill="#ABE8CF" d="M12.8.8h6.5v6.5h-6.5z"></path>
  <path fill="#FFF" d="M20 8h-8V0h8v8zm-6.5-1.5h5v-5h-5v5z"></path>
  <path fill="#C1C88E" d="M.8 12.8h6.5v6.5H.8z"></path>
  <path fill="#FFF" d="M8 20H0v-8h8v8zm-6.5-1.5h5v-5h-5v5z"></path>
  <path fill="#70706D" d="M12.8 12.8h6.5v6.5h-6.5z"></path>
  <path fill="#FFF" d="M20 20h-8v-8h8v8zm-6.5-1.5h5v-5h-5v5z"></path>
</svg>
