<?xml version="1.0" encoding="UTF-8"?>
<svg width="20px" height="20px" viewBox="0 0 20 20" version="1.1" xmlns="http://www.w3.org/2000/svg" xmlns:xlink="http://www.w3.org/1999/xlink">
    <g id="Page-10" stroke="none" stroke-width="1" fill="none" fill-rule="evenodd">
        <g id="Group-4">
            <path d="M6.11111111,11.1111111 C8.56571,11.1111111 10.5555556,13.1009567 10.5555556,15.5555556 C10.5555556,18.0101544 8.56571,20 6.11111111,20 C3.65651222,20 1.66666667,18.0101544 1.66666667,15.5555556 C1.66666667,13.1009567 3.65651222,11.1111111 6.11111111,11.1111111 Z M15.5555556,3.88888889 C18.0101544,3.88888889 20,5.87873445 20,8.33333333 C20,10.7879322 18.0101544,12.7777778 15.5555556,12.7777778 C13.1009567,12.7777778 11.1111111,10.7879322 11.1111111,8.33333333 C11.1111111,5.87873445 13.1009567,3.88888889 15.5555556,3.88888889 Z M4.44444444,0 C6.89904333,0 8.88888889,1.98984556 8.88888889,4.44444444 C8.88888889,6.89904333 6.89904333,8.88888889 4.44444444,8.88888889 C1.98984556,8.88888889 0,6.89904333 0,4.44444444 C0,1.98984556 1.98984556,0 4.44444444,0 Z" id="Combined-Shape" fill="#00918C"></path>
            <path d="M6.11111111,12.3809524 L7.04410358,14.2714016 L9.13033815,14.5745492 L7.62072463,16.0460587 L7.97709604,18.1238635 L6.11111111,17.1428571 L4.24512618,18.1238635 L4.60149759,16.0460587 L3.09188408,14.5745492 L5.17811865,14.2714016 L6.11111111,12.3809524 Z M15.5555556,5.15873016 L16.488548,7.04917937 L18.5747826,7.352327 L17.0651691,8.8238365 L17.4215405,10.9016413 L15.5555556,9.92063492 L13.6895706,10.9016413 L14.045942,8.8238365 L12.5363285,7.352327 L14.6225631,7.04917937 L15.5555556,5.15873016 Z M4.44444444,1.26984127 L5.37743691,3.16029049 L7.46367148,3.46343811 L5.95405796,4.93494761 L6.31042937,7.01275236 L4.44444444,6.03174603 L2.57845952,7.01275236 L2.93483093,4.93494761 L1.42521741,3.46343811 L3.51145198,3.16029049 L4.44444444,1.26984127 Z" id="Combined-Shape" fill="#39414D"></path>
        </g>
    </g>
</svg>