<?xml version="1.0" standalone="no"?>
<!DOCTYPE svg PUBLIC "-//W3C//DTD SVG 20010904//EN"
 "http://www.w3.org/TR/2001/REC-SVG-20010904/DTD/svg10.dtd">
<svg version="1.0" xmlns="http://www.w3.org/2000/svg"
 width="680.000000pt" height="1280.000000pt" viewBox="0 0 680.000000 1280.000000"
 preserveAspectRatio="xMidYMid meet">
<g transform="translate(0.000000,1280.000000) scale(0.100000,-0.100000)"
fill="#000000" stroke="none">
<path d="M36 12766 c-20 -20 -36 -43 -36 -51 0 -43 77 -116 539 -514 863 -744
968 -836 1311 -1151 404 -371 932 -887 1409 -1377 194 -199 392 -395 439 -436
145 -123 334 -264 459 -340 65 -40 119 -80 121 -89 2 -13 -13 -22 -66 -37 -38
-12 -77 -21 -86 -21 -9 0 -38 16 -64 35 -105 75 -180 91 -259 56 -50 -23 -62
-44 -119 -211 -23 -69 -56 -163 -73 -210 -52 -144 -39 -235 44 -292 56 -38
191 -103 246 -118 41 -10 56 -9 124 9 44 12 82 18 87 13 7 -7 -26 -669 -82
-1668 -40 -708 -71 -1477 -150 -3684 -49 -1389 -91 -2560 -92 -2603 l-3 -77
559 0 559 0 -7 248 c-4 136 -31 1250 -61 2477 -30 1227 -57 2284 -60 2350 -7
147 -40 775 -105 2010 -59 1111 -61 1195 -24 1195 20 0 48 -61 192 -420 181
-452 377 -1003 625 -1755 136 -413 584 -1897 758 -2515 192 -678 198 -697 262
-875 59 -163 69 -182 106 -190 45 -10 79 9 86 47 10 55 -29 275 -126 700 -133
589 -202 859 -463 1798 -228 822 -241 865 -491 1605 -240 710 -265 792 -385
1246 -70 267 -131 511 -135 542 -7 53 -5 60 24 106 21 32 37 75 46 127 9 43
23 87 32 98 10 12 85 91 168 176 272 279 1069 1182 1338 1513 54 67 117 185
117 220 0 54 -51 117 -95 117 -26 0 -105 -53 -230 -155 -55 -45 -251 -200
-435 -345 -430 -338 -887 -724 -996 -841 -49 -53 -153 -244 -222 -412 -17 -40
-38 -43 -96 -15 -60 30 -64 34 -751 643 -1045 927 -1118 990 -1715 1485 -466
387 -683 560 -1464 1169 -429 335 -472 365 -583 411 -116 49 -133 49 -177 6z"/>
</g>
</svg>
