<svg width="20" height="20" viewBox="0 0 20 20" fill="none" xmlns="http://www.w3.org/2000/svg">
<path d="M2.013 15.819C2.00434 15.6962 2 15.5731 2 15.45C2 13.775 3.333 10.958 6 7C8.667 10.958 10 13.775 10 15.45C10 15.574 9.996 15.697 9.987 15.819C10.321 15.022 10.5 14.072 10.5 13C10.5 11.066 9.005 7.604 6 2.78C2.995 7.605 1.5 11.067 1.5 13C1.5 14.072 1.679 15.022 2.013 15.819ZM6 20C2.134 20 0 16.866 0 13C0 10.423 2 6.09 6 0C10 6.09 12 10.423 12 13C12 16.866 9.866 20 6 20ZM3.5 15.45C3.5 17.174 4.665 18.5 6 18.5C7.335 18.5 8.5 17.174 8.5 15.45C8.5 14.407 7.67 12.465 6 9.76C4.33 12.465 3.5 14.407 3.5 15.45Z" fill="#5E6670"/>
<path d="M16.7778 0H15.3334V11.5556H16.7778V0Z" fill="#5E6670"/>
<path fill-rule="evenodd" clip-rule="evenodd" d="M18.6141 8.67851L16.0623 11.0462L13.497 8.66602L12.4445 9.64261L15.0097 12.0228L16.0623 12.9993L17.1149 12.0228L19.6667 9.6551L18.6141 8.67851Z" fill="#5E6670"/>
</svg>
