<?xml version="1.0" encoding="UTF-8"?>
<svg width="100px" height="100px" viewBox="0 0 100 100" version="1.1" xmlns="http://www.w3.org/2000/svg" xmlns:xlink="http://www.w3.org/1999/xlink">
    <title>Group 14</title>
    <g id="Landing-Page-2" stroke="none" stroke-width="1" fill="none" fill-rule="evenodd">
        <g id="GAIA-Light-Landing-Page-v1" transform="translate(-1131.000000, -809.000000)">
            <g id="Group-4" transform="translate(173.000000, 809.000000)">
                <g id="Group-14" transform="translate(958.000000, 0.000000)">
                    <rect id="Rectangle" fill-opacity="0" fill="#D8D8D8" x="0" y="0" width="100" height="100"></rect>
                    <g id="Group-16" transform="translate(10.000000, 24.000000)" fill="#FFFFFF" fill-rule="nonzero">
                        <path d="M65.7140592,15.4374973 C64.2788841,6.66242685 56.5937368,0 47.5601071,0 C40.3828397,0 33.9320187,4.16555128 30.921062,10.5562569 C28.9695276,9.43431438 26.8030967,8.84847448 24.555415,8.84847448 C18.1530661,8.84847448 12.8219097,13.4734338 11.7695746,19.6468379 C5.2547151,19.7921274 0,25.1359396 0,31.6843373 C0,38.3233508 5.40152317,43.7250005 12.0406632,43.7250005 L23.1617513,43.7250005 C24.0452572,43.7250005 24.7617056,43.0093113 24.7617056,42.1249194 C24.7617056,41.2406542 24.0452572,40.5249651 23.1617513,40.5249651 L12.0406632,40.5249651 C7.16562408,40.5249651 3.20003537,36.5593764 3.20003537,31.6843373 C3.20003537,26.8092982 7.16562408,22.8437095 12.0406632,22.8437095 C12.2445491,22.8437095 12.4398292,22.8749695 12.6359951,22.9015469 L13.0171898,22.9500189 C13.4562218,22.9936816 13.8961397,22.8624404 14.2327856,22.5750256 C14.5687988,22.2859656 14.7710395,21.8718658 14.7906562,21.4296697 C15.0242835,16.1687533 19.3132295,12.0483834 24.5554152,12.0483834 C26.759434,12.0483834 28.8695464,12.8062165 30.6570609,14.242151 C31.0633143,14.5671536 31.6047322,14.6796641 32.1055247,14.5296923 C32.6061908,14.3844029 33.0047239,14.0030817 33.1734265,13.5093765 C35.2741736,7.34369238 41.0562583,3.20003557 47.5601073,3.20003557 C55.4648339,3.20003557 62.1203001,9.37647722 62.7117087,17.2609544 C62.7444873,17.6968225 62.9539419,18.0999118 63.2922333,18.3780876 C63.6305246,18.6562633 64.0632286,18.7796583 64.5023871,18.7281487 C64.9468612,18.6733489 65.3969037,18.6358875 65.8561851,18.6358875 C71.890628,18.6358875 76.7999644,23.5452239 76.7999644,29.5796669 C76.7999644,35.6156285 71.890628,40.5249651 65.8561851,40.5249651 L56.8382485,40.5249651 C55.9547426,40.5249651 55.2382942,41.2406542 55.2382942,42.1249194 C55.2382942,43.0093113 55.9547426,43.7250005 56.8382485,43.7250005 L65.8561851,43.7250005 C73.6554882,43.7250005 80,37.3796029 80,29.5796669 C80,21.7342964 73.5601893,15.3265054 65.7140592,15.4374973 Z" id="Path"></path>
                        <path d="M43.9749537,32.4249584 C43.0914479,32.4249584 42.3749994,33.1406476 42.3749994,34.0249128 L42.3749994,50.2249259 C42.3749994,50.8718937 42.7648001,51.4562149 43.3625365,51.7031309 C43.5609804,51.7859002 43.7687898,51.8250069 43.9749537,51.8250069 C44.3914583,51.8250069 44.7999896,51.6625057 45.1062616,51.3562337 L50.4562754,46.0062199 C51.081222,45.3812733 51.081222,44.3686775 50.4562754,43.7437309 C49.8312023,43.1186579 48.818733,43.1186579 48.1937864,43.7437309 L45.5750348,46.3624826 L45.5750348,34.0249128 C45.5750348,33.1406476 44.8585861,32.4249584 43.9749537,32.4249584 Z" id="Path"></path>
                        <path d="M36.0250456,51.8250069 C36.9085515,51.8250069 37.625,51.1093178 37.625,50.2249259 L37.625,34.0249128 C37.625,33.3780715 37.2351993,32.7937503 36.6374629,32.5468343 C36.036689,32.2952357 35.3515005,32.4359689 34.8937378,32.8937316 L29.543724,38.2437455 C28.9187774,38.8686921 28.9187774,39.8811613 29.543724,40.5062344 C30.1687971,41.131181 31.1812664,41.131181 31.806213,40.5062344 L34.4249646,37.8874828 L34.4249646,50.2249261 C34.4249646,51.1093178 35.1414133,51.8250069 36.0250456,51.8250069 Z" id="Path"></path>
                    </g>
                </g>
            </g>
        </g>
    </g>
</svg>