<?xml version="1.0" encoding="UTF-8"?>
<svg width="100px" height="100px" viewBox="0 0 100 100" version="1.1" xmlns="http://www.w3.org/2000/svg" xmlns:xlink="http://www.w3.org/1999/xlink">
    <title>Group 13</title>
    <g id="Landing-Page-2" stroke="none" stroke-width="1" fill="none" fill-rule="evenodd">
        <g id="GAIA-Light-Landing-Page-v1" transform="translate(-666.000000, -809.000000)">
            <g id="Group-4" transform="translate(173.000000, 809.000000)">
                <g id="Group-13" transform="translate(493.000000, 0.000000)">
                    <rect id="Rectangle" fill-opacity="0" fill="#D8D8D8" x="0" y="0" width="100" height="100"></rect>
                    <g id="Group-15" transform="translate(13.000000, 12.000000)" fill="#FFFFFF" fill-rule="nonzero">
                        <g id="Group">
                            <path d="M61.6758703,33.57503 C65.5078031,33.57503 68.7923169,32.7539016 70.0696279,31.5678271 C70.7082833,30.9291717 70.9819928,30.1992797 70.9819928,29.2869148 C70.9819928,20.9843938 65.5990396,15.9663866 61.6758703,15.9663866 C57.8439376,15.9663866 52.3697479,21.0756303 52.3697479,29.2869148 C52.3697479,30.1992797 52.6434574,30.9291717 53.2821128,31.6590636 C54.5594238,32.7539016 57.8439376,33.57503 61.6758703,33.57503 Z M70.9819928,18.4297719 C72.9891957,21.5318127 74.1752701,25.637455 74.1752701,29.2869148 C74.1752701,31.1116447 73.5366146,32.6626651 72.1680672,34.0312125 C70.1608643,35.9471789 66.2376951,37.0420168 61.4933974,37.0420168 C56.6578631,37.0420168 52.8259304,35.9471789 50.909964,34.0312125 C49.6326531,32.6626651 48.9027611,31.1116447 48.9027611,29.2869148 C48.9027611,25.637455 50.0888355,21.5318127 52.1872749,18.4297719 C53.0996399,16.969988 54.2857143,15.6926771 55.6542617,14.7803121 C55.7454982,14.5978391 55.8367347,14.5066026 55.8367347,14.3241297 C55.9279712,13.9591837 55.8367347,13.6854742 55.5630252,13.4117647 C54.2857143,12.0432173 53.5558223,10.0360144 53.5558223,8.02881152 C53.5558223,3.64945978 57.1140456,0 61.5846339,0 L61.6758703,0 C66.0552221,0 69.7046819,3.55822329 69.7046819,8.02881152 C69.7046819,10.0360144 68.9747899,11.9519808 67.6062425,13.4117647 C67.4237695,13.6854742 67.332533,13.9591837 67.4237695,14.2328932 C67.4237695,14.5066026 67.515006,14.5978391 67.6062425,14.7803121 C68.9747899,15.6926771 70.0696279,16.969988 70.9819928,18.4297719 Z M66.4201681,7.93757503 C66.4201681,5.29171669 64.2304922,3.10204082 61.5846339,3.10204082 C58.9387755,3.10204082 56.8403361,5.29171669 56.8403361,7.93757503 C56.8403361,10.5834334 58.9387755,12.7731092 61.5846339,12.7731092 C64.3217287,12.6818727 66.4201681,10.5834334 66.4201681,7.93757503 Z" id="Shape"></path>
                            <path d="M12.6818727,0 C17.0612245,0 20.7106843,3.55822329 20.7106843,8.02881152 C20.7106843,10.0360144 19.9807923,11.9519808 18.6122449,13.4117647 C18.4297719,13.6854742 18.3385354,13.9591837 18.4297719,14.2328932 C18.4297719,14.5066026 18.5210084,14.5978391 18.6122449,14.7803121 C19.9807923,15.7839136 21.0756303,16.969988 22.0792317,18.4297719 C24.0864346,21.5318127 25.272509,25.637455 25.272509,29.2869148 C25.272509,31.1116447 24.6338535,32.6626651 23.2653061,34.0312125 C21.2581032,35.9471789 17.334934,37.0420168 12.5906363,37.0420168 C7.75510204,37.0420168 3.92316927,35.9471789 2.00720288,34.0312125 C0.638655462,32.6626651 0,31.1116447 0,29.2869148 C0,25.637455 1.18607443,21.5318127 3.28451381,18.4297719 C4.19687875,16.969988 5.38295318,15.6926771 6.66026411,14.7803121 C6.7515006,14.5978391 6.84273709,14.5066026 6.84273709,14.3241297 C6.84273709,13.9591837 6.84273709,13.6854742 6.56902761,13.4117647 C5.29171669,12.0432173 4.56182473,10.0360144 4.56182473,8.02881152 C4.56182473,3.64945978 8.12004802,0 12.5906363,0 L12.6818727,0 Z M17.4261705,7.93757503 C17.4261705,5.29171669 15.2364946,3.10204082 12.5906363,3.10204082 C9.94477791,3.10204082 7.84633854,5.29171669 7.84633854,7.93757503 C7.84633854,10.5834334 9.94477791,12.7731092 12.5906363,12.7731092 C15.3277311,12.6818727 17.4261705,10.5834334 17.4261705,7.93757503 Z M20.9843938,31.5678271 C21.6230492,30.9291717 21.8967587,30.1992797 21.8967587,29.2869148 C21.8967587,20.9843938 16.5138055,15.9663866 12.5906363,15.9663866 C8.75870348,15.9663866 3.28451381,21.0756303 3.28451381,29.2869148 C3.28451381,30.1992797 3.55822329,30.9291717 4.19687875,31.6590636 C5.47418968,32.8451381 8.66746699,33.57503 12.4993998,33.57503 C16.422569,33.57503 19.7070828,32.7539016 20.9843938,31.5678271 Z" id="Shape"></path>
                        </g>
                        <path d="M29.3781513,19.4333733 C34.8523409,19.4333733 40.3265306,19.4333733 45.8007203,19.4333733 C47.9903962,19.4333733 47.9903962,15.9663866 45.8007203,15.9663866 C40.3265306,15.9663866 34.8523409,15.9663866 29.3781513,15.9663866 C27.1884754,16.057623 27.1884754,19.4333733 29.3781513,19.4333733 L29.3781513,19.4333733 Z" id="Path"></path>
                        <g id="Group" transform="translate(10.090054, 38.957983)">
                            <path d="M27.4081452,1.29654857e-14 L27.4993817,1.29654857e-14 C31.8787335,1.29654857e-14 35.5281932,3.55822329 35.5281932,8.02881152 C35.5281932,10.0360144 34.7983013,11.9519808 33.4297539,13.4117647 C33.2472809,13.6854742 33.1560444,13.9591837 33.2472809,14.2328932 C33.2472809,14.5066026 33.3385174,14.5978391 33.4297539,14.7803121 C34.7983013,15.7839136 35.8931392,16.969988 36.8967407,18.4297719 C38.9039435,21.5318127 40.090018,25.5462185 40.090018,29.2869148 C40.090018,31.1116447 39.4513625,32.6626651 38.0828151,34.0312125 C36.0756122,35.9471789 32.1524429,37.0420168 27.4081452,37.0420168 C22.572611,37.0420168 18.7406782,35.9471789 16.8247119,34.0312125 C15.4561644,32.7539016 14.817509,31.1116447 14.817509,29.2869148 C14.817509,25.637455 16.0035834,21.5318127 18.0107863,18.4297719 C18.9231512,16.969988 20.1092257,15.6926771 21.4777731,14.7803121 C21.5690096,14.5978391 21.6602461,14.5066026 21.6602461,14.3241297 C21.6602461,13.9591837 21.6602461,13.6854742 21.3865366,13.4117647 C20.1092257,11.9519808 19.3793337,10.0360144 19.3793337,8.02881152 C19.3793337,3.64945978 23.0287935,1.29654857e-14 27.4081452,1.29654857e-14 Z M27.4993817,3.19327731 C24.8535234,3.19327731 22.755084,5.38295318 22.755084,7.93757503 C22.755084,10.5834334 24.8535234,12.7731092 27.4993817,12.7731092 C30.1452401,12.7731092 32.3349159,10.6746699 32.3349159,7.93757503 C32.2436794,5.29171669 30.1452401,3.19327731 27.4993817,3.19327731 Z M35.8931392,31.5678271 C36.5317947,30.9291717 36.8055042,30.1992797 36.8055042,29.2869148 C36.8055042,20.9843938 31.422551,15.9663866 27.4993817,15.9663866 C23.6674489,15.9663866 18.1932593,21.0756303 18.1932593,29.2869148 C18.1932593,30.1992797 18.4669688,30.9291717 19.1056242,31.6590636 C20.3829351,32.8451381 23.5762125,33.57503 27.4081452,33.57503 C31.240078,33.57503 34.5245918,32.8451381 35.8931392,31.5678271 Z" id="Shape"></path>
                            <path d="M0.493379322,4.37935174 C4.3253121,8.21128451 8.24848136,12.1344538 12.0804141,15.9663866 C13.6314345,17.517407 16.0948199,15.1452581 14.5437995,13.5030012 C10.7118667,9.67106843 6.78869745,5.74789916 2.95676468,1.91596639 C1.40574427,0.456182473 -1.05764109,2.82833133 0.493379322,4.37935174 L0.493379322,4.37935174 Z" id="Path"></path>
                            <path d="M52.0419988,2.00720288 C48.210066,5.83913565 44.2868967,9.76230492 40.454964,13.5942377 C38.9039435,15.1452581 41.2760924,17.6086435 42.9183493,16.057623 C46.7502821,12.2256903 50.6734514,8.30252101 54.5053841,4.47058824 C56.0564045,2.82833133 53.5930192,0.456182473 52.0419988,2.00720288 L52.0419988,2.00720288 Z" id="Path"></path>
                        </g>
                    </g>
                </g>
            </g>
        </g>
    </g>
</svg>