<?xml version="1.0" encoding="UTF-8"?>
<svg width="20px" height="20px" viewBox="0 0 20 20" version="1.1" xmlns="http://www.w3.org/2000/svg" xmlns:xlink="http://www.w3.org/1999/xlink">
    <g id="Page-1" stroke="none" stroke-width="1" fill="none" fill-rule="evenodd">
        <g id="Host-Opportunity-Card-Updated-v2" transform="translate(-401.000000, -788.000000)">
            <g id="icon-date-time" transform="translate(401.000000, 788.000000)">
                <path d="M0,0 L20,0 L20,20 L0,20 L0,0 Z" id="date-time-(Background)"></path>
                <path d="M6.20019531,0 L6.20019531,1.5 L13.6789551,1.5 L13.6789551,0 L15.1789551,0 L15.1789551,1.5 L20,1.5 L20.0009308,9.5005064 C19.5495631,8.89948213 19.0100073,8.36847413 18.401474,7.92669106 L18.4003906,3 L15.2001953,3 L15.2001953,4.5 L13.7001953,4.5 L13.7001953,3 L6.20019531,3 L6.20019531,4.5 L4.70019531,4.5 L4.70019531,3 L1.5,3 L1.5,18.5 L7.99981642,18.5004864 C8.42664242,19.0686364 8.93228334,19.5741968 9.5005064,20.0009308 L0,20 L0,1.5 L4.70019531,1.5 L4.70019531,0 L6.20019531,0 Z M14,8 C17.3137085,8 20,10.6862915 20,14 C20,17.3137085 17.3137085,20 14,20 C10.6862915,20 8,17.3137085 8,14 C8,10.6862915 10.6862915,8 14,8 Z M14,9.5 C11.5147185,9.5 9.5,11.5147185 9.5,14 C9.5,16.4852815 11.5147185,18.5 14,18.5 C16.4852815,18.5 18.5,16.4852815 18.5,14 C18.5,11.5147185 16.4852815,9.5 14,9.5 Z M6.20019531,13.5996094 L6.20019531,15.0996094 L4.70019531,15.0996094 L4.70019531,13.5996094 L6.20019531,13.5996094 Z M14.75,11 L14.749,13.25 L16,13.25 L16,14.75 L13.25,14.75 L13.25,11 L14.75,11 Z M6.20019531,10.5996094 L6.20019531,12.0996094 L4.70019531,12.0996094 L4.70019531,10.5996094 L6.20019531,10.5996094 Z M9.29980469,7.59960938 L9.29980469,8.15516812 C8.94584653,8.44016674 8.61831972,8.75665799 8.32147473,9.1003865 L7.79980469,9.09960938 L7.79980469,7.59960938 L9.29980469,7.59960938 Z M6.20019531,7.59960938 L6.20019531,9.09960938 L4.70019531,9.09960938 L4.70019531,7.59960938 L6.20019531,7.59960938 Z" id="date-time" fill="#5E6670"></path>
            </g>
        </g>
    </g>
</svg>