<?xml version="1.0" encoding="UTF-8"?>
<svg width="100px" height="100px" viewBox="0 0 100 100" version="1.1" xmlns="http://www.w3.org/2000/svg" xmlns:xlink="http://www.w3.org/1999/xlink">
    <title>Group 12</title>
    <g id="Landing-Page-2" stroke="none" stroke-width="1" fill="none" fill-rule="evenodd">
        <g id="GAIA-Light-Landing-Page-v1" transform="translate(-173.000000, -809.000000)">
            <g id="Group-12" transform="translate(173.000000, 809.000000)">
                <rect id="Rectangle" fill-opacity="0" fill="#D8D8D8" x="0" y="0" width="100" height="100"></rect>
                <path d="M85.9304731,75.5962329 L82.0944257,71.7245208 C82.1893892,71.5582395 82.2369422,71.3682412 82.2369422,71.1663665 L82.0944257,13.1858615 C82.0825374,12.7701407 81.8687744,12.3900965 81.5243119,12.1763216 C81.1680323,11.9625586 80.7286181,11.9388534 80.3723385,12.1288398 L67.3676892,18.6727378 L54.3392634,12.2000981 C53.9948721,12.0338169 53.6029278,12.0338169 53.2704366,12.2000981 L40.2776755,18.743996 L27.2374208,12.2713564 C26.9048465,12.1050752 26.5129022,12.1050752 26.180411,12.2713564 L12.6531891,19.0764991 C12.2493565,19.2784451 12,19.6940947 12,20.1453971 L12.154393,78.1259021 C12.154393,78.5296634 12.3681559,78.9215959 12.7125472,79.1353708 C12.902605,79.2422938 13.1163798,79.301652 13.3420311,79.301652 C13.5201293,79.301652 13.6983106,79.2660585 13.8764801,79.1829119 L26.8692412,72.639014 L39.8975957,79.1116536 C40.241987,79.2778636 40.6339314,79.2778636 40.9664938,79.1116536 L53.9592548,72.5677557 L66.9994976,79.0403953 C67.3320007,79.2066053 67.723945,79.2066053 68.0565074,79.0403953 L68.840313,78.648451 L75.7761552,85.6554684 C78.5471525,88.4503253 83.0800347,88.4819046 85.8828963,85.7030214 C88.6858054,82.9239364 88.7095106,78.3990351 85.9304731,75.5962329 Z M54.4936564,70.1806031 C54.149265,70.0143219 53.7573207,70.0143219 53.4248295,70.1806031 L40.4320685,76.724501 L27.3917544,70.2518614 C27.2255445,70.1687148 27.0473631,70.121233 26.8692649,70.121233 C26.6792072,70.121233 26.5010258,70.1687148 26.3348159,70.2518614 L14.5178047,76.190052 L14.3752881,20.8698445 L26.7148601,14.6585209 L39.7551029,21.1311605 C40.0876059,21.2973705 40.4795503,21.2973705 40.8121127,21.1311605 L53.8048737,14.5872626 L66.8451166,21.0599023 C67.1776196,21.2261122 67.5695639,21.2261122 67.9021264,21.0599023 L79.7191376,15.1098234 L79.8616541,69.468044 L72.8307889,62.3659205 C71.9044668,61.4277101 70.3842544,61.4277101 69.4460441,62.3540322 L69.327304,62.4728435 L66.1919275,59.2899853 C71.4324282,51.428676 71.2990564,40.1746884 64.2679537,32.2474415 C56.4857412,23.0512745 41.3445071,21.8188624 31.8929267,31.1904317 C23.9910477,38.9846988 23.0809368,51.5930332 29.8026717,60.465747 C37.8476254,70.5250063 50.625994,71.5875386 59.6599178,65.7507485 L62.8071113,68.9217185 L62.6883713,69.0404586 C62.2370688,69.4917611 61.9876291,70.0974684 61.9876291,70.7387692 C61.9758121,71.3682531 62.2251686,71.9739604 62.676483,72.4252629 L66.2275091,76.0118825 L54.4936564,70.1806031 Z M64.4936287,67.2471013 L61.6313852,64.3611525 C62.213316,63.8623683 62.747765,63.3754604 63.2584494,62.8647166 L63.2584494,62.8528996 C63.6411302,62.5035202 64.4894245,61.5847871 64.7786619,61.2376524 L67.6527224,64.1354894 L64.4936287,67.2471013 Z M38.9622238,64.9917884 L56.8226147,49.8681076 L65.4206634,55.8798724 C65.0808089,56.4427297 64.102587,58.6852043 61.5838916,61.1663941 C55.6681711,67.0821265 46.5464571,68.5937523 38.9622238,64.9917884 Z M32.4529812,59.9690411 L38.6508251,54.2579507 C38.9175805,54.0120739 39.0573417,53.657172 39.0300855,53.2953106 C39.0028292,52.9334491 38.811465,52.6040696 38.5104938,52.3999383 L27.7716561,45.1479112 C27.9435192,44.1003906 27.9968085,42.2330197 29.1837103,39.4006571 L43.6182522,49.2278875 C43.8206376,49.365903 44.0537591,49.4343347 44.2868806,49.4343347 C44.5501562,49.4343347 44.8128499,49.3473521 45.0291544,49.173375 L63.1752198,34.6464111 L63.175291,34.6464111 C64.3628579,36.1189992 65.3010682,37.7459091 66.0135442,39.4559655 L62.4522926,42.3073421 C62.1600267,42.5404636 61.995325,42.8988452 62.0075102,43.272298 C62.0196835,43.6469147 62.2075797,43.9936932 62.5143466,44.2070999 L67.4745291,47.6733167 C67.3846724,48.5042478 67.4626884,50.5361659 66.3582206,53.636804 C66.3581493,53.6368753 66.3581493,53.6370178 66.358078,53.6370891 L57.4344146,47.3977134 C56.9925301,47.0892007 56.398711,47.1170389 55.9863987,47.4649813 L36.7623023,63.7436995 C36.3370566,63.4346166 34.3048297,62.1756727 32.4529812,59.9690411 Z M27.7005403,47.9667584 L35.936882,53.5284439 L31.0133737,58.0655185 C28.9711825,55.001614 27.8668334,51.5104568 27.7005403,47.9717583 L27.7005403,47.9667584 L27.7005403,47.9667584 Z M30.2284043,37.2390845 C30.7083408,36.5060743 31.4468498,34.9671328 33.5555844,32.8768541 C41.3328208,25.1734413 53.8404079,25.1833818 61.5838916,32.8768541 C61.5841766,32.8770678 61.5848298,32.8775073 61.5848298,32.877721 L44.2300521,46.7714244 L30.2284043,37.2390845 Z M66.8105444,41.8601726 C67.0583095,42.7817085 67.2353982,43.7265815 67.3423094,44.6832834 L65.1755111,43.1690923 L66.8105444,41.8601726 Z M84.2083859,84.0166109 C82.3437822,85.8693264 79.3153168,85.8455499 77.4626132,83.9809462 C76.1226724,82.626433 82.3157064,88.8868417 64.3629291,70.7387574 C64.4821561,70.6205874 71.2396151,63.9227359 71.12059,64.0405377 L71.1443666,64.0405377 C81.4020683,74.4004713 57.7124051,50.4747175 84.2440507,77.270767 C86.0967661,79.1353708 86.0848779,82.1638242 84.2083859,84.0166109 Z" id="Shape" fill="#FFFFFF" fill-rule="nonzero"></path>
            </g>
        </g>
    </g>
</svg>