<?xml version="1.0" encoding="UTF-8"?>
<svg width="20px" height="20px" viewBox="0 0 20 20" version="1.1" xmlns="http://www.w3.org/2000/svg" xmlns:xlink="http://www.w3.org/1999/xlink">
    <g id="Page-1" stroke="none" stroke-width="1" fill="none" fill-rule="evenodd">
        <g id="Host-Opportunity-Card-Updated-v2" transform="translate(-403.000000, -632.000000)">
            <g id="icon-opp-type-public" transform="translate(403.000000, 632.000000)">
                <rect id="Rectangle" fill-opacity="0" fill="#D8D8D8" x="0" y="0" width="20" height="20"></rect>
                <path d="M10,0 C4.4863281,0 0,4.4858398 0,10 C0,15.5136719 4.4863281,20 10,20 C15.5136719,20 20,15.5136719 20,10 C20,4.4858398 15.5136719,0 10,0 Z M10.75,7.0273438 C11.6318359,6.9858399 12.5048828,6.8681641 13.3505859,6.678711 C13.5039062,7.4687501 13.6044921,8.3305665 13.640625,9.2509766 L10.75,9.2509766 L10.75,7.0273438 Z M10.75,5.5263672 L10.75,1.7172852 C11.6074219,2.1894532 12.4365234,3.4331055 12.9892578,5.222168 C12.2597656,5.387207 11.5107422,5.4853516 10.75,5.5263672 Z M9.25,1.7172852 L9.25,5.5263672 C8.4892578,5.4853516 7.7402344,5.387207 7.0107422,5.222168 C7.5634766,3.4331055 8.3925781,2.1894531 9.25,1.7172852 Z M9.25,7.027832 L9.25,9.2509765 L6.359375,9.2509765 C6.3955078,8.3310546 6.4960938,7.4692382 6.6494141,6.6787109 C7.4951172,6.8686523 8.3681641,6.9858398 9.25,7.027832 Z M4.8603516,9.2509766 L1.5380859,9.2509766 C1.6679687,7.7709961 2.1748047,6.3984375 2.9677734,5.2324219 C3.6572265,5.6518555 4.4052734,6.0043946 5.203125,6.2778321 C5.0166016,7.2050781 4.8994141,8.203125 4.8603516,9.2509766 Z M4.8603516,10.7509766 C4.8994141,11.8164063 5.0195313,12.8310547 5.2119141,13.7714844 C4.421875,14.0419922 3.678711,14.3896485 2.9941407,14.803711 C2.1875,13.6298828 1.6699219,12.2460938 1.5380859,10.7509766 L4.8603516,10.7509766 Z M6.359375,10.7509766 L9.25,10.7509766 L9.25,13.0244141 C8.3710938,13.0654297 7.5009766,13.1826172 6.6582031,13.3710938 C6.5,12.5683594 6.3964844,11.6894531 6.359375,10.7509766 Z M9.25,14.5253906 L9.25,18.2822265 C8.4003906,17.8144531 7.5771484,16.5898437 7.0244141,14.8261718 C7.75,14.6630859 8.4941406,14.5654297 9.25,14.5253906 Z M10.75,18.2832031 L10.75,14.5253906 C11.5058594,14.5654297 12.25,14.6630859 12.9755859,14.8261718 C12.4228516,16.5898438 11.5996094,17.8144531 10.75,18.2832031 Z M10.75,13.0244141 L10.75,10.7509766 L13.640625,10.7509766 C13.6035156,11.6894532 13.5,12.5683594 13.3417969,13.3710938 C12.4990234,13.1826172 11.6289062,13.0664062 10.75,13.0244141 Z M15.1396484,10.7509766 L18.461914,10.7509766 C18.3300781,12.2460938 17.8124999,13.6298828 17.0058593,14.803711 C16.321289,14.3896485 15.5781249,14.0419922 14.7880859,13.7714844 C14.9804688,12.8310547 15.1005859,11.8164062 15.1396484,10.7509766 Z M15.1396484,9.2509766 C15.1005859,8.2026367 14.984375,7.2045898 14.796875,6.277832 C15.5947266,6.0039062 16.3427734,5.6513672 17.0322266,5.2324218 C17.8251954,6.3979491 18.3320313,7.770996 18.4619141,9.2509766 L15.1396484,9.2509766 L15.1396484,9.2509766 Z M16.0546875,4.0439453 C15.5429687,4.3398437 14.9970703,4.5898437 14.4208984,4.7988281 C14.1044922,3.7729492 13.6972656,2.871582 13.2158203,2.1362304 C14.2890625,2.5771484 15.2529297,3.2294922 16.0546875,4.0439453 Z M6.7841797,2.1362305 C6.3027344,2.871582 5.8955078,3.7729492 5.5791016,4.7988281 C5.0029297,4.5898438 4.4570312,4.3398438 3.9453125,4.0439453 C4.7470703,3.2294922 5.7109375,2.5771484 6.7841797,2.1362305 Z M3.9775391,15.9902344 C4.484375,15.7001953 5.0234375,15.453125 5.5927735,15.2480469 C5.9082032,16.2539063 6.3095704,17.1396485 6.7841797,17.8632813 C5.7255859,17.4287109 4.7724609,16.7900391 3.9775391,15.9902344 Z M13.2158203,17.8632812 C13.6904297,17.1396484 14.0917969,16.2539062 14.4072265,15.2480468 C14.9765624,15.4531249 15.5156249,15.7001952 16.0224609,15.9902343 C15.2275391,16.7900391 14.2744141,17.4287109 13.2158203,17.8632812 Z" id="Shape" fill="#5E6670" fill-rule="nonzero"></path>
            </g>
        </g>
    </g>
</svg>