<svg viewBox="0 0 20 20" fit="" height="100%" width="100%" preserveAspectRatio="xMidYMid meet" focusable="false" xmlns="http://www.w3.org/2000/svg"><path d="M16.7 15.2c-.7-2.1-2.2-3.7-4.1-4.4.9-.8 1.5-1.9 1.5-3.2 0-2.3-1.8-4.1-4.1-4.1S5.9 5.3 5.9 7.6c0 1.3.6 2.4 1.5 3.2-1.9.8-3.4 2.4-4.1 4.4-1.1-1.4-1.8-3.3-1.8-5.3 0-4.7 3.8-8.5 8.5-8.5s8.5 3.8 8.5 8.5c0 2-.6 3.9-1.8 5.3zm-6.7-5c-1.4 0-2.6-1.2-2.6-2.6C7.4 6.2 8.6 5 10 5c1.4 0 2.6 1.2 2.6 2.6 0 1.4-1.1 2.6-2.6 2.6zm-5.4 6.3c.6-2.7 2.8-4.7 5.4-4.7 2.6 0 4.9 2 5.4 4.7-1.5 1.2-3.4 2-5.4 2-2 0-3.9-.8-5.4-2zM10 0C4.5 0 0 4.5 0 10s4.5 10 10 10 10-4.5 10-10S15.6 0 10 0z"></path></svg>