<svg width="20" height="20" viewBox="0 0 20 20" fill="none" xmlns="http://www.w3.org/2000/svg">
<path fill-rule="evenodd" clip-rule="evenodd" d="M13 3C13 1.34315 11.6569 0 10 0C8.34315 0 7 1.34315 7 3C7 3.76878 7.28917 4.47002 7.76468 5.00088L3 5L0 20H20L17 5L12.2353 5.00088C12.7108 4.47002 13 3.76878 13 3ZM4.229 6.5H15.77L18.17 18.5H1.829L4.229 6.5ZM10 1.5C9.17157 1.5 8.5 2.17157 8.5 3C8.5 3.82843 9.17157 4.5 10 4.5C10.8284 4.5 11.5 3.82843 11.5 3C11.5 2.17157 10.8284 1.5 10 1.5ZM11.3301 11.4492V10.4287H10.3149V9H8.8916V10.4287H8V11.4492H8.8916V14.6772C8.8916 15.0819 8.95784 15.4077 9.09033 15.6548C9.22282 15.8983 9.40902 16.0755 9.64893 16.1865C9.88883 16.2939 10.1681 16.3477 10.4868 16.3477C10.673 16.3477 10.8395 16.3351 10.9863 16.3101C11.1367 16.285 11.271 16.2528 11.3892 16.2134L11.3838 15.1499C11.3301 15.1606 11.2638 15.1714 11.1851 15.1821C11.1063 15.1929 11.0203 15.1982 10.9272 15.1982C10.7983 15.1982 10.6873 15.1821 10.5942 15.1499C10.5011 15.1177 10.4313 15.055 10.3848 14.9619C10.3382 14.8688 10.3149 14.7363 10.3149 14.5645V11.4492H11.3301Z" fill="#5E6670"/>
</svg>
