<svg viewBox="0 0 20 20" fit="" height="100%" width="100%" preserveAspectRatio="xMidYMid meet" focusable="false">
  <path d="M12.5566788,-0.00066547808 C12.1536593,0.439237337 11.8255659,0.948914373 11.5926114,1.50815314 L2.81339366,1.50833798 L8.12498442,9.61023592 C8.43072934,10.0592624 8.59597437,10.6021582 8.59697084,11.1599797 L8.59697084,17.7311954 L11.4029815,16.5727538 L11.4029815,11.1599797 C11.4039779,10.6021582 11.569223,10.0592624 11.8748018,9.61023592 L13.1980708,7.59263367 C13.5988636,7.90466869 14.0466959,8.15912201 14.5291414,8.34356726 L13.1633725,10.4277473 L13.1489583,10.4493252 C13.0133235,10.6486309 12.9367638,10.9001151 12.9362972,11.1599797 L12.9362972,17.5755213 L7.06365507,20 L7.06365744,11.1626302 C7.06318854,10.9001456 6.98665077,10.6487989 6.83640188,10.4277292 L-1.0658141e-14,4.54747351e-13 Z" id="Combined-Shape"></path>
  <path d="M16.5,7 C14.5670034,7 13,5.43299662 13,3.5 C13,1.56700338 14.5670034,0 16.5,0 C18.4329966,0 20,1.56700338 20,3.5 C20,5.43299662 18.4329966,7 16.5,7 Z" id="Path"></path>
</svg>